<svg width="178" height="75" viewBox="0 0 178 75" fill="none" xmlns="http://www.w3.org/2000/svg">
<g clip-path="url(#clip0)">
<path fill-rule="evenodd" clip-rule="evenodd" d="M81.7 26.9999C81.1 26.9999 80.5 27.0999 80.1 27.2999C79.6 27.4999 79.2001 27.8999 78.9001 28.2999C78.6001 28.6999 78.4 29.2999 78.2 29.8999C78.1 30.4999 78 31.1999 78 31.9999C78 32.6999 78.1 33.3999 78.2 33.9999C78.3 34.5999 78.5001 35.1999 78.8001 35.5999C79.1001 36.0999 79.4001 36.3999 79.9001 36.6999C80.4001 36.9999 81 37.0999 81.6 37.0999C82.2 37.0999 82.8001 36.9999 83.3001 36.6999C83.8001 36.4999 84.2 36.0999 84.5 35.6999C84.8 35.2999 85 34.6999 85.2 34.0999C85.3 33.4999 85.4001 32.7999 85.4001 31.9999C85.4001 31.2999 85.3 30.5999 85.2 29.9999C85.1 29.3999 84.9001 28.7999 84.6001 28.3999C84.3001 27.8999 83.9 27.5999 83.5 27.2999C83 27.0999 82.4 26.9999 81.7 26.9999ZM51.3 26.9999C50.7 26.9999 50.1001 27.0999 49.7001 27.2999C49.2001 27.4999 48.8 27.8999 48.5 28.2999C48.2 28.6999 48 29.2999 47.8 29.8999C47.6 30.4999 47.6 31.1999 47.6 31.9999C47.6 32.6999 47.7 33.3999 47.8 33.9999C47.9 34.5999 48.1001 35.1999 48.4001 35.5999C48.7001 36.0999 49 36.3999 49.5 36.6999C50 36.9999 50.6001 37.0999 51.2001 37.0999C51.8001 37.0999 52.4001 36.9999 52.9001 36.6999C53.4001 36.4999 53.8 36.0999 54.1 35.6999C54.4 35.2999 54.6 34.6999 54.8 34.0999C54.9 33.4999 55 32.7999 55 31.9999C55 31.2999 54.9 30.5999 54.8 29.9999C54.7 29.3999 54.5001 28.7999 54.2001 28.3999C53.9001 27.8999 53.5 27.5999 53.1 27.2999C52.6 27.0999 52 26.9999 51.3 26.9999ZM126.5 23.9999H138.3C138.7 23.9999 139 24.0999 139.2 24.2999C139.4 24.4999 139.5 24.8999 139.5 25.2999V39.4999C139.5 39.5999 139.5 39.6999 139.4 39.7999C139.3 39.8999 139.2 39.9999 139.1 39.9999C138.9 40.0999 138.7 40.0999 138.5 40.0999C138.2 40.0999 137.9 40.0999 137.5 40.0999C137.1 40.0999 136.8 40.0999 136.5 40.0999C136.2 40.0999 136 39.9999 135.8 39.9999C135.6 39.8999 135.5 39.8999 135.5 39.7999C135.4 39.6999 135.4 39.5999 135.4 39.4999V27.4999H129.7V39.5999C129.7 39.6999 129.7 39.7999 129.6 39.8999C129.5 39.9999 129.4 40.0999 129.2 40.0999C129 40.1999 128.8 40.1999 128.6 40.1999C128.3 40.1999 128 40.1999 127.6 40.1999C127.2 40.1999 126.8 40.1999 126.6 40.1999C126.3 40.1999 126.1 40.0999 126 40.0999C125.8 39.9999 125.7 39.9999 125.7 39.8999C125.6 39.7999 125.6 39.6999 125.6 39.5999V25.3999C125.6 24.9999 125.7 24.5999 125.9 24.3999C125.8 24.0999 126.1 23.9999 126.5 23.9999ZM91.6001 23.9999H103.4C103.5 23.9999 103.6 23.9999 103.7 24.0999C103.8 24.1999 103.9 24.2999 103.9 24.3999C104 24.4999 104 24.6999 104 24.9999C104 25.1999 104 25.4999 104 25.8999C104 26.2999 104 26.5999 104 26.7999C104 26.9999 103.9 27.1999 103.9 27.3999C103.8 27.4999 103.8 27.5999 103.7 27.6999C103.6 27.7999 103.5 27.7999 103.4 27.7999H99.6001V39.5999C99.6001 39.6999 99.6 39.7999 99.5 39.8999C99.4 39.9999 99.3 40.0999 99.2 40.0999C99 40.1999 98.8001 40.1999 98.6001 40.1999C98.3001 40.1999 98.0001 40.1999 97.6001 40.1999C97.2001 40.1999 96.9001 40.1999 96.6001 40.1999C96.3001 40.1999 96.1 40.0999 96 40.0999C95.8 39.9999 95.7 39.9999 95.7 39.8999C95.6 39.7999 95.6001 39.6999 95.6001 39.5999V27.7999H91.8C91.7 27.7999 91.6 27.7999 91.5 27.6999C91.4 27.5999 91.3 27.4999 91.3 27.3999C91 27.1999 91 26.9999 91 26.7999C91 26.4999 91 26.1999 91 25.8999C91 25.5999 91.0001 25.2999 91.1001 25.0999C91.1001 24.8999 91.2 24.6999 91.2 24.4999C91.3 24.3999 91.3001 24.2999 91.4001 24.1999C91.4001 23.9999 91.5001 23.9999 91.6001 23.9999ZM63.8 23.9999H71.7C71.8 23.9999 71.9 23.9999 72 24.0999C72.1 24.1999 72.1 24.2999 72.2 24.3999C72.3 24.4999 72.3001 24.6999 72.3001 24.9999C72.3001 25.1999 72.4001 25.4999 72.4001 25.8999C72.4001 26.2999 72.4001 26.4999 72.3001 26.7999C72.3001 26.9999 72.2 27.1999 72.2 27.3999C72.1 27.4999 72.1 27.5999 72 27.6999C71.9 27.7999 71.8 27.7999 71.7 27.7999H66.8001V39.5999C66.8001 39.6999 66.8 39.7999 66.7 39.8999C66.6 39.9999 66.5001 40.0999 66.4001 40.0999C66.2001 40.1999 66.0001 40.1999 65.8001 40.1999C65.5001 40.1999 65.2001 40.1999 64.8001 40.1999C64.4001 40.1999 64 40.1999 63.8 40.1999C63.5 40.1999 63.3001 40.0999 63.2001 40.0999C63.0001 39.9999 62.9001 39.9999 62.9001 39.8999C62.8001 39.7999 62.8 39.6999 62.8 39.5999V25.3999C62.8 24.9999 62.9 24.5999 63.1 24.3999C63.1 24.0999 63.4 23.9999 63.8 23.9999ZM108.3 23.8999C109.1 23.8999 109.6 23.9999 110 24.0999C110.3 24.1999 110.5 24.3999 110.5 24.5999V31.1999C110.5 31.6999 110.5 32.0999 110.4 32.5999C110.4 33.0999 110.3 33.5999 110.3 33.9999C110.6 33.5999 110.8 33.0999 111.1 32.6999C111.4 32.2999 111.7 31.7999 112 31.3999L117.1 24.4999C117.2 24.3999 117.3 24.2999 117.4 24.1999C117.5 24.0999 117.6 23.9999 117.8 23.9999C117.9 23.8999 118.1 23.8999 118.4 23.8999C118.6 23.8999 118.9 23.8999 119.2 23.8999C119.6 23.8999 119.9 23.8999 120.2 23.8999C120.5 23.8999 120.7 23.9999 120.8 23.9999C121 24.0999 121.1 24.0999 121.1 24.1999C121.2 24.2999 121.2 24.3999 121.2 24.4999V39.4999C121.2 39.5999 121.2 39.6999 121.1 39.7999C121 39.8999 120.9 39.8999 120.8 39.9999C120.6 40.0999 120.4 40.0999 120.2 40.0999C119.9 40.0999 119.6 40.0999 119.2 40.0999C118.8 40.0999 118.5 40.0999 118.2 40.0999C117.9 40.0999 117.7 39.9999 117.5 39.9999C117.3 39.8999 117.2 39.8999 117.1 39.7999C117 39.6999 117 39.5999 117 39.4999V32.7999C117 32.2999 117 31.7999 117 31.2999C117 30.7999 117.1 30.2999 117.1 29.7999C116.8 30.2999 116.5 30.6999 116.2 31.1999C115.9 31.6999 115.6 32.0999 115.2 32.4999L110.1 39.3999C110 39.4999 109.9 39.5999 109.8 39.6999C109.7 39.7999 109.6 39.8999 109.4 39.8999C109.3 39.9999 109.1 39.9999 108.9 39.9999C108.7 39.9999 108.4 39.9999 108.1 39.9999C107.7 39.9999 107.4 39.9999 107.1 39.9999C106.8 39.9999 106.6 39.8999 106.5 39.8999C106.3 39.7999 106.2 39.7999 106.2 39.6999C106.1 39.5999 106.1 39.4999 106.1 39.3999V24.3999C106.1 24.2999 106.1 24.1999 106.2 24.0999C106.3 23.9999 106.4 23.8999 106.5 23.8999C106.7 23.7999 106.9 23.7999 107.1 23.7999C107.6 23.8999 107.9 23.8999 108.3 23.8999ZM81.9001 23.5999C83.2001 23.5999 84.4001 23.7999 85.4001 24.0999C86.4001 24.4999 87.2 24.9999 87.8 25.6999C88.4 26.3999 88.9 27.2999 89.2 28.2999C89.5 29.2999 89.7 30.4999 89.7 31.7999C89.7 33.0999 89.5 34.1999 89.2 35.2999C88.9 36.3999 88.4 37.2999 87.7 37.9999C87 38.7999 86.2001 39.2999 85.1001 39.7999C84.1001 40.1999 82.9 40.3999 81.5 40.3999C80.2 40.3999 79 40.1999 78 39.7999C77 39.3999 76.2 38.8999 75.5 38.1999C74.9 37.4999 74.4 36.5999 74.1 35.5999C73.8 34.5999 73.6 33.3999 73.6 32.0999C73.6 30.7999 73.8 29.6999 74.1 28.5999C74.4 27.4999 75 26.5999 75.6 25.8999C76.3 25.0999 77.1 24.5999 78.2 24.0999C79.3 23.7999 80.5001 23.5999 81.9001 23.5999ZM51.5 23.5999C52.8 23.5999 54 23.7999 55 24.0999C56 24.4999 56.8001 24.9999 57.4001 25.6999C58.0001 26.3999 58.5 27.2999 58.8 28.2999C59.1 29.2999 59.3 30.4999 59.3 31.7999C59.3 33.0999 59.1 34.1999 58.8 35.2999C58.5 36.3999 58 37.2999 57.3 37.9999C56.6 38.7999 55.8001 39.2999 54.7001 39.7999C53.7001 40.1999 52.5 40.3999 51.1 40.3999C49.8 40.3999 48.6 40.1999 47.6 39.7999C46.6 39.3999 45.8 38.8999 45.1 38.1999C44.5 37.4999 44.0001 36.5999 43.7001 35.5999C43.4001 34.5999 43.2001 33.3999 43.2001 32.0999C43.2001 30.7999 43.4001 29.6999 43.7001 28.5999C44.0001 27.4999 44.6001 26.5999 45.2001 25.8999C45.9001 25.0999 46.7 24.5999 47.8 24.0999C48.9 23.7999 50.1 23.5999 51.5 23.5999ZM27.7001 18.3999H38.4001C38.8001 18.3999 39.1 18.4999 39.3 18.6999C39.5 18.8999 39.6 19.2999 39.6 19.7999V39.5999C39.6 39.6999 39.6 39.7999 39.5 39.8999C39.4 39.9999 39.3 40.0999 39.1 40.0999C38.9 40.1999 38.7001 40.1999 38.4001 40.1999C38.1001 40.1999 37.8 40.1999 37.3 40.1999C36.9 40.1999 36.5001 40.1999 36.2001 40.1999C35.9001 40.1999 35.7 40.0999 35.5 40.0999C35.3 39.9999 35.2 39.9999 35.1 39.8999C35 39.7999 35 39.6999 35 39.5999V21.9999H30.3C30 24.5999 29.7 26.7999 29.3 28.6999C29 30.5999 28.6 32.2999 28.3 33.5999C27.9 34.9999 27.5 36.0999 27.1 36.9999C26.7 37.8999 26.2 38.5999 25.6 39.0999C25 39.5999 24.4001 39.9999 23.7001 40.1999C23.0001 40.3999 22.2 40.4999 21.3 40.4999C21.1 40.4999 21 40.4999 20.9 40.3999C20.8 40.3999 20.7 40.2999 20.6 40.0999C20.5 39.9999 20.5 39.7999 20.4 39.5999C20.4 39.3999 20.3 39.0999 20.3 38.6999C20.3 38.1999 20.3 37.7999 20.3 37.4999C20.3 37.1999 20.4 36.9999 20.4 36.7999C20.5 36.5999 20.5 36.4999 20.6 36.4999C20.7 36.3999 20.8 36.3999 20.9 36.3999C21.2 36.3999 21.6 36.2999 21.9 36.1999C22.2 36.0999 22.5 35.7999 22.8 35.3999C23.1 34.9999 23.4001 34.3999 23.7001 33.5999C24.0001 32.8999 24.2 31.8999 24.5 30.5999C24.8 29.3999 25 27.8999 25.3 26.0999C25.6 24.2999 25.8 22.1999 26.1 19.7999C26.2 19.1999 26.3 18.7999 26.5 18.5999C27 18.4999 27.3001 18.3999 27.7001 18.3999Z" fill="#FDFDFE"/>
<path fill-rule="evenodd" clip-rule="evenodd" d="M0 23.5V66.7H4.9V46.8H5.7C10.8 46.8 12.3 50.8 13.3 56C14.1 59.7 14.8 64.0001 15.8 66.8001H20.8C19.5 63.1001 18.8 58.8 17.9 54.8C16.8 49.5 15.1 45 9.8 43.8L20.4 23.5H15L5.8 43.1H4.9V23.5H0ZM26.4 23.5V66.5C27.7 66.8 29.7 66.9001 32.9 66.9001C38 66.9001 41.9 65.4 44.4 62.5C46.4 60.3 47.5 57.1001 47.5 53.2001C47.5 49.2001 46.2 46 43.8 43.8C41.6 41.6 38.3 40.4001 34.6 40.4001C33.5 40.4001 32.4 40.5001 31.3 40.7001V27.7001H44.7V23.4H26.4V23.5ZM31.3 44.8C32.1 44.7 33 44.6 33.7 44.6C36.4 44.6 38.6 45.6001 40.1 47.2001C41.6 48.8001 42.4 51 42.4 53.6C42.4 56.2 41.7 58.3 40.4 60C39 61.9 36.7 63 33.8 63C32.9 63 32.1 63 31.3 62.8V44.8V44.8ZM64.5 22.3V25.7001C58.7 26.3001 52.5 31.4 52.5 45.1C52.5 59.7 58.4 63.6001 64.4 64.4001V68H68.9V64.4001C74.9 63.8001 81 59.5001 81 44.9001C81 32.1001 75.7 26.4001 69.1 25.7001V22.3H64.5V22.3ZM64.5 60.7001C60.7 59.9001 57.5 55.6 57.5 45.2001C57.5 33.8001 60.9 29.8 64.5 29.3V60.7001ZM69 29.3C72.2 29.7 76 33.6 76 44.8C76 55.8 73.2 60.0001 69 60.7001V29.3Z" fill="black"/>
<path fill-rule="evenodd" clip-rule="evenodd" d="M144 70.8C144 70.8 186.1 57 176.7 0C176.7 0 118.2 12.4 138.5 67.2C138.5 67.2 155.5 43.2 158.4 30.4C158.4 30.3 154.3 60 144 70.8Z" fill="#78B629"/>
<path fill-rule="evenodd" clip-rule="evenodd" d="M132.3 71.2C132.3 71.2 136.2 32.5 87.1 19.8C87.1 19.8 76.3 71.1001 127.5 74.3001C127.5 74.3001 114.3 52.1001 105 45.2001C104.9 45.1001 127.3 59 132.3 71.2Z" fill="#78B629"/>
<path d="M124.2 70.7H0V74H124.2V70.7Z" fill="#78B629"/>
</g>
<defs>
<clipPath id="clip0">
<rect width="178" height="74.2" fill="white"/>
</clipPath>
</defs>
</svg>
