<svg width="242" height="63" viewBox="0 0 242 63" fill="none" xmlns="http://www.w3.org/2000/svg">
<g clip-path="url(#clip0)">
<path d="M119.757 37.1154L110.346 23.492V37.1154H103.62V7.64233H110.346V20.4351L119.36 7.64233H127.014L117.106 21.9968L127.445 37.1154H119.757Z" fill="#00ADFF"/>
<path d="M134.47 30.9018C137.486 31.2673 139.341 30.3702 139.341 25.4192V7.64233H158.395V37.1154H151.668V14.1218H146.035V25.1534C146.035 35.6866 139.871 37.7135 134.437 37.1819V30.9018H134.47Z" fill="#00ADFF"/>
<path d="M210.685 22.3956C210.685 30.9684 203.859 37.7136 195.409 37.7136C187.887 37.7136 181.823 32.4636 180.564 25.22H176.687V37.1488H169.96V7.64241H176.687V18.7073H180.73C182.287 11.8956 188.185 7.04431 195.409 7.04431C203.826 7.07754 210.685 13.7231 210.685 22.3956ZM203.959 22.3956C203.959 17.1456 200.181 13.6567 195.409 13.6567C190.637 13.6567 186.86 16.9794 186.86 22.3956C186.86 27.6456 190.637 31.1345 195.409 31.1345C200.181 31.1345 203.959 27.6456 203.959 22.3956Z" fill="#00ADFF"/>
<path d="M242 7.64233V37.1154H235.273V27.1139C233.848 27.579 232.423 27.7784 230.899 27.7784C225.067 27.7784 220.362 24.3559 220.362 18.1756V7.64233H227.088V17.1455C227.088 19.8702 228.778 21.2658 231.065 21.2658C232.622 21.2658 233.948 21.0664 235.273 20.5347V7.64233H242Z" fill="#00ADFF"/>
<path d="M12.4264 50.6059V61.5379H11.0346V59.6439C10.4382 60.3749 9.77542 60.9066 9.0464 61.2721C8.31739 61.6376 7.5221 61.8037 6.66053 61.8037C5.10309 61.8037 3.81075 61.2388 2.71722 60.1091C1.6237 58.9794 1.09351 57.617 1.09351 56.0221C1.09351 54.4604 1.65684 53.098 2.75036 51.9683C3.84388 50.8385 5.16936 50.3069 6.72681 50.3069C7.62151 50.3069 8.4168 50.5063 9.14581 50.8718C9.87483 51.2373 10.5044 51.8354 11.0678 52.5996V50.6059H12.4264ZM6.82622 51.6692C6.03093 51.6692 5.33505 51.8686 4.67231 52.2341C4.00957 52.6328 3.47937 53.1645 3.08173 53.8623C2.68408 54.5601 2.48526 55.2911 2.48526 56.0553C2.48526 56.8195 2.68408 57.5506 3.08173 58.2483C3.47937 58.9461 4.00957 59.511 4.67231 59.8765C5.33505 60.2752 6.06407 60.4746 6.79308 60.4746C7.55523 60.4746 8.28425 60.2752 8.98013 59.8765C9.67601 59.4778 10.2062 58.9794 10.5707 58.3148C10.9352 57.6502 11.134 56.9192 11.134 56.0885C11.134 54.8259 10.7033 53.7626 9.87483 52.9319C9.0464 52.1012 8.01915 51.6692 6.82622 51.6692Z" fill="#00ADFF"/>
<path d="M16.3365 51.8354V61.5379H14.9116V50.606H20.4124V51.8354H16.3365V51.8354Z" fill="#00ADFF"/>
<path d="M30.7842 57.9162L31.9772 58.5475C31.5795 59.3117 31.1488 59.9431 30.6186 60.4082C30.0884 60.8734 29.525 61.2389 28.8954 61.4715C28.2658 61.7041 27.5368 61.837 26.7415 61.837C24.9521 61.837 23.5604 61.2389 22.5662 60.076C21.5721 58.913 21.0751 57.5839 21.0751 56.1219C21.0751 54.7263 21.5059 53.4969 22.3343 52.4003C23.3947 51.0048 24.8527 50.3402 26.6421 50.3402C28.4978 50.3402 29.989 51.038 31.0825 52.4668C31.8778 53.4636 32.2754 54.7263 32.2754 56.1883H22.5C22.5331 57.451 22.9308 58.5143 23.726 59.3117C24.5213 60.1092 25.4823 60.5412 26.609 60.5412C27.1723 60.5412 27.7025 60.4415 28.2327 60.2421C28.7629 60.0427 29.1937 59.7769 29.5582 59.4779C29.9558 59.1456 30.3535 58.6139 30.7842 57.9162ZM30.7842 54.9589C30.5854 54.1946 30.3203 53.5965 29.9558 53.1646C29.5913 52.7326 29.1274 52.3671 28.5309 52.0681C27.9345 51.8022 27.338 51.6693 26.6752 51.6693C25.6149 51.6693 24.687 52.0016 23.9249 52.6994C23.3615 53.1978 22.9308 53.962 22.6657 54.9589H30.7842Z" fill="#00ADFF"/>
<path d="M42.2166 56.2879H35.8874V61.5379H34.4625V50.606H35.8543V54.9588H42.1835V50.606H43.5752V61.5379H42.1835V56.2879H42.2166Z" fill="#00ADFF"/>
<path d="M44.702 50.606H51.8596V51.8354H48.9767V61.5379H47.585V51.8354H44.702V50.606V50.606Z" fill="#00ADFF"/>
<path d="M63.6563 52.8654L62.5296 53.5632C61.5686 52.3006 60.2432 51.636 58.5863 51.636C57.2608 51.636 56.1673 52.068 55.2726 52.9319C54.3779 53.7958 53.9471 54.8259 53.9471 56.0553C53.9471 56.8528 54.1459 57.617 54.5436 58.3148C54.9412 59.0126 55.5046 59.5775 56.2004 59.943C56.8963 60.3417 57.6916 60.5411 58.5532 60.5411C60.1437 60.5411 61.4692 59.9097 62.4633 58.6138L63.59 59.3449C63.0598 60.1423 62.3639 60.7404 61.5024 61.1724C60.6408 61.6044 59.6135 61.837 58.4869 61.837C56.7638 61.837 55.3389 61.2721 54.2122 60.1756C53.0855 59.079 52.5222 57.7499 52.5222 56.155C52.5222 55.0917 52.7873 54.1281 53.3175 53.1977C53.8477 52.3006 54.5767 51.5695 55.5046 51.0711C56.4324 50.5727 57.4596 50.3069 58.6194 50.3069C59.3485 50.3069 60.0443 50.4066 60.7071 50.6392C61.3698 50.8718 61.9331 51.1376 62.4302 51.5031C62.9273 51.8686 63.3249 52.3338 63.6563 52.8654Z" fill="#00ADFF"/>
<path d="M64.7499 50.606H71.9075V51.8354H69.0246V61.5379H67.6328V51.8354H64.7499V50.606V50.606Z" fill="#00ADFF"/>
<path d="M76.2815 61.5379H73.1003V50.606H76.2152C77.4082 50.606 78.2697 50.8718 78.7999 51.4367C79.3301 52.0015 79.5952 52.6329 79.5952 53.3639C79.5952 54.4604 79.0981 55.2246 78.1372 55.6234C79.5621 56.1218 80.2579 57.0854 80.2579 58.5142C80.2579 60.5411 78.9325 61.5379 76.2815 61.5379ZM74.5252 51.8354V55.2246H75.4531C76.2815 55.2246 76.8117 55.1914 77.0768 55.1249C77.3419 55.0585 77.5738 54.8923 77.8058 54.6265C78.0378 54.3607 78.1372 54.0284 78.1372 53.5965C78.1372 53.1313 78.0046 52.7658 77.7727 52.4667C77.5407 52.1677 77.2756 51.9683 77.0436 51.9351C76.7786 51.8686 76.2484 51.8686 75.4531 51.8686H74.5252V51.8354ZM74.5252 56.5205V60.3417H76.0164C76.7123 60.3417 77.2425 60.3085 77.5407 60.2088C77.8389 60.1091 78.104 59.9097 78.336 59.6107C78.568 59.3116 78.6674 58.9129 78.6674 58.481C78.6674 57.8829 78.4685 57.4177 78.104 57.0522C77.7395 56.6866 77.2425 56.5205 76.6129 56.5205H74.5252V56.5205Z" fill="#00ADFF"/>
<path d="M87.3494 50.3402C89.0394 50.3402 90.4311 50.9383 91.5246 52.1677C92.5188 53.2643 93.0158 54.5934 93.0158 56.1219C93.0158 57.6503 92.4856 58.9794 91.4252 60.1092C90.3648 61.2389 89.0062 61.837 87.3494 61.837C85.6925 61.837 84.3007 61.2722 83.2404 60.1092C82.18 58.9462 81.6498 57.6171 81.6498 56.1219C81.6498 54.5934 82.1468 53.2975 83.1409 52.201C84.2676 50.9383 85.6594 50.3402 87.3494 50.3402ZM87.3494 51.7026C86.1896 51.7026 85.1955 52.1345 84.3339 52.9984C83.5055 53.8624 83.0747 54.8924 83.0747 56.1219C83.0747 56.9193 83.2735 57.6503 83.638 58.3149C84.0357 59.0127 84.5327 59.5111 85.1955 59.9098C85.8582 60.2753 86.5541 60.4747 87.3494 60.4747C88.1447 60.4747 88.8405 60.2753 89.5033 59.9098C90.166 59.5443 90.6631 59.0127 91.0607 58.3149C91.4584 57.6171 91.624 56.8861 91.624 56.1219C91.624 54.8924 91.1933 53.8624 90.3648 52.9984C89.5364 52.1345 88.5092 51.7026 87.3494 51.7026Z" fill="#00ADFF"/>
<path d="M111.374 56.2879H105.044V61.5379H103.653V50.606H105.044V54.9588H111.374V50.606H112.765V61.5379H111.374V56.2879Z" fill="#00ADFF"/>
<path d="M124.264 57.9162L125.457 58.5475C125.059 59.3117 124.629 59.9431 124.098 60.4082C123.568 60.8734 123.005 61.2389 122.375 61.4715C121.746 61.7041 121.017 61.837 120.221 61.837C118.432 61.837 117.04 61.2389 116.046 60.076C115.052 58.913 114.555 57.5839 114.555 56.1219C114.555 54.7263 114.986 53.4969 115.814 52.4003C116.875 51.0048 118.333 50.3402 120.122 50.3402C121.978 50.3402 123.469 51.038 124.562 52.4668C125.358 53.4636 125.755 54.7263 125.755 56.1883H115.947C115.98 57.451 116.377 58.5143 117.173 59.3117C117.968 60.1092 118.929 60.5412 120.056 60.5412C120.619 60.5412 121.149 60.4415 121.679 60.2421C122.21 60.0427 122.64 59.7769 123.005 59.4779C123.436 59.1456 123.833 58.6139 124.264 57.9162ZM124.264 54.9589C124.065 54.1946 123.8 53.5965 123.436 53.1646C123.071 52.7326 122.607 52.3671 122.011 52.0681C121.414 51.8022 120.818 51.6693 120.155 51.6693C119.095 51.6693 118.167 52.0016 117.405 52.6994C116.841 53.1978 116.411 53.962 116.146 54.9589H124.264Z" fill="#00ADFF"/>
<path d="M127.114 60.3417L131.322 50.606H132.051L136.226 60.3417H137.552V62.9335H136.193V61.5379H127.18V62.9999H125.788V60.3417H127.114V60.3417ZM131.653 52.7658L128.472 60.3417H134.702L131.653 52.7658Z" fill="#00ADFF"/>
<path d="M141.628 61.5379H138.447V50.606H141.561C142.754 50.606 143.616 50.8718 144.146 51.4367C144.676 52.0015 144.941 52.6329 144.941 53.3639C144.941 54.4604 144.444 55.2246 143.483 55.6234C144.908 56.1218 145.604 57.0854 145.604 58.5142C145.604 60.5411 144.279 61.5379 141.628 61.5379ZM139.871 51.8354V55.2246H140.799C141.628 55.2246 142.158 55.1914 142.423 55.1249C142.688 55.0585 142.92 54.8923 143.152 54.6265C143.384 54.3607 143.483 54.0284 143.483 53.5965C143.483 53.1313 143.351 52.7658 143.119 52.4667C142.887 52.1677 142.622 51.9683 142.39 51.9351C142.125 51.8686 141.595 51.8686 140.799 51.8686H139.871V51.8354ZM139.871 56.5205V60.3417H141.363C142.058 60.3417 142.589 60.3085 142.887 60.2088C143.185 60.1091 143.45 59.9097 143.682 59.6107C143.914 59.3116 144.014 58.9129 144.014 58.481C144.014 57.8829 143.815 57.4177 143.45 57.0522C143.086 56.6866 142.589 56.5205 141.959 56.5205H139.871V56.5205Z" fill="#00ADFF"/>
<path d="M147.99 50.606V58.6803L156.009 50.606H156.109V61.5379H154.717V53.53L146.764 61.5379H146.598V50.606H147.99Z" fill="#00ADFF"/>
<path d="M163.631 50.606H165.056V55.4572L170.258 50.606H171.981L166.812 55.4904L172.346 61.5379H170.556L165.851 56.2547L165.056 56.9192V61.5379H163.631V56.9192L162.835 56.2547L158.163 61.5379H156.341L161.808 55.4572L156.738 50.606H158.461L163.598 55.424V50.606H163.631Z" fill="#00ADFF"/>
<path d="M174.235 50.606V58.6803L182.254 50.606H182.353V61.5379H180.928V53.53L172.975 61.5379H172.81V50.606H174.235Z" fill="#00ADFF"/>
<path d="M196.569 50.606H196.967L200.678 61.5379H199.22L196.503 53.4968L192.328 61.5379H192.062L187.854 53.4968L185.17 61.5379H183.712L187.423 50.606H187.788L192.195 59.1455L196.569 50.606Z" fill="#00ADFF"/>
<path d="M206.61 50.3402C208.299 50.3402 209.691 50.9383 210.785 52.1677C211.779 53.2643 212.276 54.5934 212.276 56.1219C212.276 57.6503 211.746 58.9794 210.685 60.1092C209.625 61.2389 208.266 61.837 206.61 61.837C204.953 61.837 203.561 61.2722 202.5 60.1092C201.44 58.9462 200.91 57.6171 200.91 56.1219C200.91 54.5934 201.407 53.2975 202.401 52.201C203.528 50.9383 204.92 50.3402 206.61 50.3402ZM206.576 51.7026C205.417 51.7026 204.422 52.1345 203.561 52.9984C202.732 53.8624 202.302 54.8924 202.302 56.1219C202.302 56.9193 202.501 57.6503 202.865 58.3149C203.263 59.0127 203.76 59.5111 204.422 59.9098C205.085 60.2753 205.781 60.4747 206.576 60.4747C207.372 60.4747 208.068 60.2753 208.73 59.9098C209.393 59.5443 209.89 59.0127 210.288 58.3149C210.685 57.6171 210.851 56.8861 210.851 56.1219C210.851 54.8924 210.42 53.8624 209.592 52.9984C208.763 52.1345 207.736 51.7026 206.576 51.7026Z" fill="#00ADFF"/>
<path d="M224.404 52.8654L223.277 53.5632C222.316 52.3006 220.991 51.636 219.334 51.636C218.009 51.636 216.915 52.068 216.02 52.9319C215.126 53.7958 214.695 54.8259 214.695 56.0553C214.695 56.8528 214.894 57.617 215.291 58.3148C215.689 59.0126 216.252 59.5775 216.948 59.943C217.644 60.3417 218.439 60.5411 219.301 60.5411C220.892 60.5411 222.217 59.9097 223.211 58.6138L224.338 59.3449C223.808 60.1423 223.112 60.7404 222.25 61.1724C221.389 61.6044 220.361 61.837 219.235 61.837C217.512 61.837 216.087 61.2721 214.96 60.1756C213.833 59.079 213.27 57.7499 213.27 56.155C213.27 55.0917 213.535 54.1281 214.065 53.1977C214.596 52.3006 215.325 51.5695 216.252 51.0711C217.18 50.5727 218.207 50.3069 219.367 50.3069C220.096 50.3069 220.792 50.4066 221.455 50.6392C222.118 50.8718 222.681 51.1376 223.178 51.5031C223.708 51.8686 224.106 52.3338 224.404 52.8654Z" fill="#00ADFF"/>
<path d="M224.537 50.606H231.694V51.8354H228.811V61.5379H227.42V51.8354H224.537V50.606V50.606Z" fill="#00ADFF"/>
<path d="M233.848 50.606V58.6803L241.867 50.606H241.967V61.5379H240.575V53.53L232.622 61.5379H232.457V50.606H233.848Z" fill="#00ADFF"/>
<path d="M42.9456 21.5316C42.9456 33.4272 33.3359 43.0633 21.4728 43.0633C9.60975 43.0633 0 33.4272 0 21.5316C0 9.63608 9.60975 0 21.4728 0C33.3359 0 42.9456 9.63608 42.9456 21.5316ZM21.7048 10.5332C15.5081 10.5332 10.5045 15.5506 10.5045 21.7642C10.5045 27.9778 15.5081 32.9953 21.7048 32.9953C27.9014 32.9953 32.9051 27.9778 32.9051 21.7642C32.9051 15.5506 27.9014 10.5332 21.7048 10.5332Z" fill="#00ADFF"/>
<path d="M34.9927 21.9303C34.9927 24.8544 37.3785 27.2468 40.2946 27.2468H89.3375C92.2535 27.2468 94.6394 24.8544 94.6394 21.9303C94.6394 19.0063 92.2535 16.6139 89.3375 16.6139H40.2946C37.3785 16.6139 34.9927 19.0063 34.9927 21.9303C34.9927 19.0063 34.9927 21.9303 34.9927 21.9303Z" fill="#00ADFF"/>
<path d="M74.3927 25.818H69.2234C68.66 25.818 68.2292 26.25 68.2292 26.8148V35.3544C68.2292 35.9193 68.66 36.3512 69.2234 36.3512H74.3927C74.9561 36.3512 75.3869 35.9193 75.3869 35.3544V26.8148C75.3869 26.2832 74.9229 25.818 74.3927 25.818Z" fill="#00ADFF"/>
<path d="M86.786 25.818H82.0805C81.5172 25.818 81.0864 26.25 81.0864 26.8148V35.3544C81.0864 35.9193 81.5172 36.3512 82.0805 36.3512H86.786C87.3493 36.3512 87.7801 35.9193 87.7801 35.3544V26.8148C87.7801 26.2832 87.3162 25.818 86.786 25.818Z" fill="#00ADFF"/>
<path d="M68.2292 24.8877V31.1013H75.3869V30.1377C75.3869 29.3402 76.0165 28.7089 76.8118 28.7089H79.6615C80.4568 28.7089 81.0864 29.3402 81.0864 30.1377V31.1013H87.7801V24.8877H68.2292Z" fill="#00ADFF"/>
</g>
<defs>
<clipPath id="clip0">
<rect width="242" height="63" fill="white"/>
</clipPath>
</defs>
</svg>
