<svg width="129" height="112" viewBox="0 0 129 112" fill="none" xmlns="http://www.w3.org/2000/svg">
<g clip-path="url(#clip0)">
<path fill-rule="evenodd" clip-rule="evenodd" d="M9.44104 106.67H10.4772C10.7184 106.668 10.9593 106.689 11.1966 106.732C11.4341 106.78 11.6528 106.894 11.8265 107.061C11.9276 107.165 12.0055 107.289 12.0549 107.425C12.1044 107.561 12.1243 107.706 12.1135 107.85C12.1159 108.019 12.0803 108.187 12.0091 108.341C11.9438 108.481 11.8499 108.607 11.7333 108.71C11.6235 108.807 11.4974 108.884 11.3606 108.938V108.938C11.5614 108.95 11.7567 109.008 11.9308 109.108C12.1104 109.217 12.2561 109.373 12.352 109.558C12.4574 109.731 12.5218 109.925 12.5405 110.126C12.5592 110.327 12.5316 110.529 12.4599 110.718C12.3881 110.907 12.2741 111.077 12.1263 111.216C11.9785 111.355 11.8008 111.459 11.6066 111.521C11.3322 111.609 11.0452 111.652 10.7568 111.65H9.44104V106.67ZM9.93304 108.798H10.5741C10.7167 108.811 10.8603 108.794 10.9958 108.748C11.1312 108.702 11.2555 108.629 11.3606 108.533C11.5275 108.353 11.6171 108.116 11.6103 107.872C11.6281 107.743 11.606 107.611 11.5468 107.495C11.4876 107.378 11.3941 107.282 11.2786 107.219C11.0603 107.119 10.8223 107.067 10.5816 107.068H9.93304V108.798ZM9.93304 111.255H10.7679C11.1055 111.281 11.4403 111.178 11.7035 110.967C11.8043 110.873 11.8837 110.758 11.9364 110.631C11.9891 110.504 12.0139 110.367 12.0091 110.229C12.0174 110.086 11.9921 109.942 11.9352 109.81C11.8783 109.677 11.7914 109.56 11.6811 109.466C11.4097 109.27 11.0772 109.174 10.7418 109.197H9.93304V111.255Z" fill="black"/>
<path fill-rule="evenodd" clip-rule="evenodd" d="M17.1268 111.683V109.388L15.5278 106.695H16.0757L17.3691 108.946L18.6662 106.695H19.2141L17.6188 109.388V111.683H17.1268Z" fill="black"/>
<path fill-rule="evenodd" clip-rule="evenodd" d="M27.0522 111.709V106.721H28.3046C28.8405 106.707 29.3705 106.835 29.8402 107.09C30.2306 107.304 30.5494 107.626 30.7571 108.016C30.9539 108.39 31.0563 108.805 31.0553 109.226C31.0583 109.652 30.9573 110.072 30.7609 110.451C30.5543 110.84 30.235 111.16 29.844 111.369C29.3705 111.617 28.8398 111.738 28.3046 111.72L27.0522 111.709ZM27.5405 111.31H28.2524C28.7149 111.329 29.1741 111.226 29.583 111.011C29.9078 110.837 30.1687 110.566 30.3285 110.237C30.4756 109.916 30.5507 109.567 30.5484 109.215C30.5546 108.905 30.495 108.597 30.3732 108.311C30.2638 108.057 30.0968 107.831 29.885 107.651C29.6715 107.472 29.4245 107.337 29.1581 107.253C28.8702 107.162 28.5695 107.117 28.2673 107.12H27.5442L27.5405 111.31Z" fill="black"/>
<path d="M34.7901 106.751H34.2981V111.738H34.7901V106.751Z" fill="black"/>
<path fill-rule="evenodd" clip-rule="evenodd" d="M37.6453 111.841L39.904 106.714L42.1403 111.841H41.6372L40.9364 110.218H38.838L38.141 111.841H37.6453ZM39.0206 109.82H40.7836L39.8816 107.773L39.0206 109.82Z" fill="black"/>
<path fill-rule="evenodd" clip-rule="evenodd" d="M45.3606 111.76V106.777H45.8489V109.09L48.1039 106.777H48.7077L46.3185 109.189L48.7561 111.76H48.1039L45.8489 109.34V111.76H45.3606Z" fill="black"/>
<path fill-rule="evenodd" clip-rule="evenodd" d="M50.9515 109.285C50.9499 108.939 51.0144 108.596 51.1416 108.274C51.2664 107.955 51.4561 107.664 51.6991 107.421C51.9422 107.177 52.2332 106.985 52.5542 106.858C52.9096 106.717 53.2896 106.647 53.6724 106.651C54.0553 106.646 54.4354 106.716 54.7906 106.858C55.1119 106.986 55.4035 107.178 55.6476 107.422C55.8918 107.665 56.0833 107.955 56.2106 108.274C56.4654 108.924 56.4654 109.645 56.2106 110.296C56.0835 110.616 55.8916 110.907 55.6468 111.151C55.402 111.395 55.1093 111.588 54.7868 111.716C54.4317 111.858 54.0516 111.928 53.6687 111.922C53.2858 111.927 52.9059 111.857 52.5505 111.716C52.2254 111.587 51.9309 111.392 51.6858 111.144C51.4462 110.901 51.2586 110.612 51.1341 110.296C51.0094 109.973 50.9474 109.63 50.9515 109.285ZM51.4696 109.285C51.4681 109.573 51.5199 109.86 51.6224 110.13C51.7234 110.396 51.8753 110.64 52.0697 110.849C52.2657 111.061 52.5044 111.231 52.7704 111.347C53.0568 111.465 53.364 111.526 53.6742 111.526C53.9845 111.526 54.2917 111.465 54.5781 111.347C54.8439 111.234 55.0827 111.067 55.2788 110.856C55.4719 110.647 55.6224 110.403 55.7224 110.137C55.9272 109.588 55.9272 108.985 55.7224 108.437C55.6225 108.172 55.4719 107.929 55.2788 107.721C55.0828 107.51 54.844 107.343 54.5781 107.23C54.2919 107.11 53.9834 107.049 53.6724 107.053C53.361 107.05 53.0523 107.111 52.7667 107.234C52.5009 107.349 52.2622 107.517 52.0659 107.728C51.8725 107.939 51.7219 108.184 51.6224 108.451C51.5213 108.718 51.4695 109 51.4696 109.285V109.285Z" fill="black"/>
<path fill-rule="evenodd" clip-rule="evenodd" d="M61.112 111.893L59.1477 106.71H59.6807L61.112 110.646L62.5432 106.71H63.0762L61.112 111.893Z" fill="black"/>
<path fill-rule="evenodd" clip-rule="evenodd" d="M70.0723 111.687L69.4983 110.949C69.3535 111.131 69.1899 111.298 69.01 111.447C68.8717 111.565 68.7125 111.658 68.5404 111.72C68.3594 111.775 68.1706 111.801 67.9813 111.797C67.698 111.806 67.4176 111.74 67.1688 111.605C66.9549 111.488 66.7791 111.312 66.6619 111.1C66.5559 110.898 66.4985 110.675 66.4939 110.448C66.4894 110.221 66.538 109.996 66.6358 109.79C66.737 109.599 66.875 109.428 67.042 109.289C67.2661 109.103 67.5027 108.933 67.7502 108.78C67.5835 108.593 67.4326 108.393 67.2992 108.182C67.2074 108.027 67.1598 107.849 67.1613 107.669C67.1602 107.493 67.2107 107.32 67.3067 107.171C67.4029 107.015 67.5408 106.887 67.7055 106.803C67.8786 106.715 68.0704 106.671 68.2646 106.673C68.4503 106.668 68.6341 106.711 68.7975 106.799C68.9438 106.879 69.063 106.999 69.1405 107.146C69.2211 107.301 69.262 107.473 69.2597 107.647C69.2604 107.857 69.1895 108.061 69.0585 108.226C68.8497 108.468 68.6076 108.679 68.3391 108.853L69.5393 110.329L70.2139 109.54L70.5158 109.779L69.7704 110.632L70.5717 111.642L70.0723 111.687ZM69.2523 110.676L67.9776 109.09C67.7291 109.272 67.5353 109.417 67.3961 109.525C67.2701 109.639 67.1664 109.775 67.0905 109.927C67.0042 110.093 66.9618 110.279 66.9675 110.466C66.9666 110.648 67.0169 110.826 67.1128 110.982C67.2035 111.134 67.3318 111.261 67.4856 111.351C67.6406 111.44 67.8168 111.487 67.9962 111.487C68.1365 111.49 68.2759 111.465 68.4062 111.414C68.5431 111.355 68.669 111.274 68.7789 111.174C68.8957 111.053 69.0547 110.884 69.256 110.665L69.2523 110.676ZM68.108 108.603C68.3061 108.488 68.4847 108.344 68.6373 108.175C68.7528 108.027 68.8122 107.845 68.805 107.658C68.8081 107.499 68.7494 107.345 68.641 107.227C68.5917 107.169 68.5301 107.122 68.4605 107.09C68.391 107.058 68.3151 107.042 68.2385 107.042C68.0784 107.044 67.9242 107.102 67.8024 107.205C67.7331 107.262 67.6785 107.334 67.6428 107.416C67.6072 107.498 67.5917 107.588 67.5974 107.677C67.6019 107.849 67.6562 108.017 67.7539 108.16C67.856 108.32 67.9761 108.469 68.1117 108.603H68.108Z" fill="black"/>
<path fill-rule="evenodd" clip-rule="evenodd" d="M73.5686 111.627L75.8273 106.5L78.0637 111.627H77.5605L76.8598 110.004H74.7688L74.0718 111.627H73.5686ZM74.944 109.606H76.7069L75.8273 107.562L74.944 109.606Z" fill="black"/>
<path fill-rule="evenodd" clip-rule="evenodd" d="M83.3973 109.038H85.7268C85.7237 109.34 85.6811 109.64 85.6001 109.931C85.5181 110.228 85.3817 110.508 85.1975 110.757C85.0028 111.018 84.747 111.228 84.4521 111.369C84.0952 111.533 83.7048 111.612 83.3116 111.602C82.814 111.615 82.322 111.496 81.8877 111.255C81.4995 111.034 81.1848 110.706 80.982 110.31C80.7753 109.901 80.6705 109.448 80.6764 108.99C80.6705 108.526 80.7725 108.066 80.9746 107.647C81.1656 107.252 81.467 106.919 81.843 106.688C82.2442 106.441 82.7086 106.313 83.1811 106.319C83.6181 106.315 84.0499 106.414 84.4409 106.607C84.8316 106.806 85.1631 107.102 85.4025 107.466L85.0298 107.739C84.8354 107.424 84.5613 107.164 84.2345 106.986C83.9077 106.807 83.5395 106.716 83.1662 106.721C82.8719 106.717 82.5807 106.781 82.3164 106.909C82.0731 107.029 81.8603 107.202 81.6939 107.415C81.5258 107.636 81.3995 107.886 81.3212 108.153C81.2362 108.424 81.1935 108.706 81.1945 108.99C81.1905 109.308 81.2461 109.625 81.3585 109.923C81.4568 110.186 81.6106 110.425 81.8095 110.624C82.0016 110.813 82.2313 110.96 82.4841 111.056C82.7445 111.155 83.0214 111.205 83.3004 111.203C83.6404 111.208 83.9761 111.128 84.2769 110.971C84.5625 110.825 84.8022 110.604 84.9702 110.333C85.1374 110.063 85.2252 109.753 85.2236 109.436H83.4085L83.3973 109.038Z" fill="black"/>
<path fill-rule="evenodd" clip-rule="evenodd" d="M89.219 106.74H89.711V109.927C89.7006 110.224 89.7606 110.52 89.8862 110.79C89.9877 111.003 90.153 111.179 90.3595 111.295C90.5587 111.4 90.7807 111.455 91.0062 111.455C91.2317 111.455 91.4537 111.4 91.6529 111.295C91.8599 111.18 92.0264 111.005 92.13 110.794C92.2587 110.522 92.32 110.223 92.3089 109.923V106.725H92.8083V109.853C92.8083 110.633 92.6232 111.161 92.253 111.439C91.9017 111.711 91.4686 111.857 91.023 111.856C90.749 111.856 90.4774 111.806 90.2216 111.709C89.9321 111.589 89.6891 111.381 89.5284 111.115C89.31 110.732 89.2077 110.295 89.2339 109.857L89.219 106.74Z" fill="black"/>
<path fill-rule="evenodd" clip-rule="evenodd" d="M96.5356 112V107.016H97.8812C98.228 107.017 98.5672 107.117 98.8577 107.304C99.0211 107.425 99.1494 107.587 99.2299 107.773C99.3103 107.959 99.3401 108.162 99.3162 108.363C99.3175 108.57 99.2729 108.775 99.1857 108.964C99.0784 109.175 98.9078 109.347 98.6974 109.458C98.3994 109.613 98.0687 109.697 97.7321 109.702L99.5174 112.004H98.9211L97.1916 109.709H97.0053V112.004L96.5356 112ZM97.0239 109.307H97.5271C98.3819 109.307 98.8093 108.991 98.8093 108.359C98.8303 108.215 98.8112 108.067 98.7541 107.933C98.697 107.798 98.604 107.682 98.485 107.596C98.2263 107.463 97.9373 107.4 97.6464 107.411H97.0276L97.0239 109.307Z" fill="black"/>
<path fill-rule="evenodd" clip-rule="evenodd" d="M103.047 111.948V106.961H105.746V107.359H103.536V108.957H105.667V109.355H103.536V111.55H105.746V111.948H103.047Z" fill="black"/>
<path fill-rule="evenodd" clip-rule="evenodd" d="M109.473 111.79V106.802H112.171V107.201H109.961V108.798H112.093V109.197H109.961V111.388H112.171V111.79H109.473Z" fill="black"/>
<path fill-rule="evenodd" clip-rule="evenodd" d="M117.595 111.974L115.63 106.788H116.16L117.595 110.727L119.026 106.788H119.559L117.595 111.974Z" fill="black"/>
<path fill-rule="evenodd" clip-rule="evenodd" d="M9.82494 87.7164C9.85467 87.4568 9.86712 87.1956 9.86222 86.9344C9.86708 86.6099 9.7983 86.2884 9.66095 85.9937C9.54127 85.7281 9.35213 85.4989 9.11304 85.3298C8.55779 85.0195 7.92283 84.8772 7.28669 84.9203C6.54731 84.9062 5.814 85.0549 5.1398 85.3556C4.53302 85.6361 4.0008 86.0529 3.58553 86.5729C2.74318 87.6328 2.322 89.0604 2.322 90.8556C2.322 92.5771 2.74939 93.9407 3.60417 94.9465C4.03774 95.4691 4.58789 95.8849 5.21135 96.1615C5.83482 96.438 6.5146 96.5676 7.19724 96.5401C8.68813 96.5401 9.84358 96.2191 10.6636 95.5773C10.91 95.3909 11.1395 95.1836 11.3494 94.9576C11.4611 95.0021 11.5614 95.0704 11.6432 95.1578C11.7251 95.2452 11.7864 95.3494 11.8227 95.4629C11.8638 95.5815 11.8827 95.7065 11.8787 95.8318C11.8322 96.088 11.7133 96.3259 11.5358 96.5179C11.2577 96.8621 10.9209 97.1555 10.5406 97.3848C9.42612 98.0783 8.12929 98.4299 6.81333 98.3955C4.73353 98.3955 3.07614 97.7697 1.84118 96.5179C0.606222 95.2662 -0.00753126 93.6259 -7.67663e-05 91.5971C-0.0175265 90.4343 0.188651 89.2788 0.607464 88.1923C0.979837 87.2302 1.54389 86.3521 2.26609 85.6101C2.96177 84.9048 3.79656 84.3485 4.71862 83.976C5.58371 83.6097 6.51353 83.4166 7.45442 83.4079C8.16914 83.3887 8.88334 83.4619 9.57895 83.6255C10.0551 83.7459 10.5058 83.9495 10.9096 84.2268C11.245 84.4628 11.5162 84.7773 11.6989 85.1423C11.8817 85.5072 11.9703 85.9113 11.9569 86.3184C11.9802 86.598 11.9224 86.8784 11.7904 87.1266C11.6583 87.3749 11.4575 87.5808 11.2115 87.7201C11.0476 87.815 10.8609 87.8647 10.671 87.864C10.3814 87.8788 10.092 87.8284 9.82494 87.7164V87.7164Z" fill="black"/>
<path fill-rule="evenodd" clip-rule="evenodd" d="M25.5912 97.1525C25.7918 97.1898 25.9949 97.212 26.1988 97.2189C26.333 97.2186 26.4667 97.2038 26.5976 97.1746C26.7215 97.1497 26.8401 97.1035 26.948 97.0381C27.0608 96.9704 27.1527 96.8734 27.2138 96.7576C27.2749 96.6419 27.3028 96.5118 27.2946 96.3815C27.2834 96.0909 27.2043 95.8068 27.0635 95.5515L26.1578 93.3382H20.0637L18.9828 96.0458C18.9013 96.2154 18.8497 96.3976 18.83 96.5844C18.824 96.6699 18.8421 96.7555 18.8822 96.8315C18.9239 96.8904 18.9805 96.9374 19.0462 96.968C19.1337 97.0114 19.2263 97.0436 19.322 97.0639L19.7171 97.1672C19.9966 97.2016 20.2716 97.2659 20.5371 97.359C20.6464 97.4006 20.7405 97.474 20.807 97.5694C20.8735 97.6649 20.9094 97.778 20.9098 97.8939C20.9141 98.0525 20.8627 98.2076 20.7645 98.3329C20.6539 98.3026 20.5399 98.2865 20.4253 98.2849H16.5079C15.6532 98.2849 15.2258 98.0525 15.2258 97.5877C15.2173 97.4023 15.2682 97.219 15.3711 97.0639C15.5674 97.1214 15.7703 97.1537 15.9749 97.1598C16.1169 97.1638 16.258 97.1373 16.3887 97.0824C16.5136 97.0209 16.6231 96.9327 16.7092 96.8242C16.9726 96.4364 17.1772 96.0126 17.3167 95.5663L22.0764 84.1641C22.2106 83.8592 22.5933 83.6489 23.2244 83.5333C23.4052 83.5008 23.5886 83.4848 23.7723 83.4854C24.1649 83.4854 24.406 83.5899 24.4954 83.7989L25.4608 86.1819C27.317 90.5175 28.3892 93.0468 28.6774 93.7698L29.5458 96.02C29.6354 96.344 29.7818 96.6499 29.9782 96.9238C30.0817 97.0315 30.2094 97.1136 30.3509 97.1635C30.4876 97.2091 30.627 97.2461 30.7684 97.2742C30.8958 97.2996 31.0206 97.3366 31.1411 97.3849C31.2478 97.4181 31.3412 97.4838 31.4081 97.5725C31.475 97.6612 31.512 97.7685 31.5138 97.8792C31.5181 98.0377 31.4667 98.1928 31.3685 98.3181C31.2617 98.2882 31.1514 98.2721 31.0405 98.2702H26.4634C26.2033 98.2816 25.9435 98.2415 25.6993 98.1521C25.6196 98.1278 25.5499 98.0788 25.5003 98.0125C25.4507 97.9461 25.4238 97.8658 25.4235 97.7832C25.3996 97.5598 25.4592 97.3353 25.5912 97.1525V97.1525ZM25.5912 91.9881L23.0679 85.8093L20.593 91.9881H25.5912Z" fill="black"/>
<path fill-rule="evenodd" clip-rule="evenodd" d="M44.727 98.1227C44.4139 98.0551 44.093 98.029 43.7729 98.0453H38.2565C37.9792 98.0565 37.7032 98.0021 37.4514 97.8866C37.3499 97.8304 37.2671 97.7459 37.2135 97.6436C37.1598 97.5414 37.1376 97.4258 37.1495 97.3112C37.142 97.1363 37.196 96.9642 37.3024 96.8243C37.7304 96.9419 38.1813 96.952 38.6143 96.8538C38.8101 96.8073 38.9958 96.726 39.1623 96.614C39.3646 96.4866 39.5309 96.3104 39.6456 96.102C39.7604 95.8937 39.8198 95.6598 39.8182 95.4225V84.843H38.5659C37.9541 84.8159 37.3412 84.8592 36.7395 84.9721C36.5025 85.0325 36.2822 85.1447 36.0947 85.3004C35.9383 85.4528 35.8185 85.6381 35.7444 85.8426C35.532 86.5039 35.4067 87.1896 35.3716 87.8826C35.2495 87.9117 35.1245 87.9278 34.9989 87.9305C34.7504 87.9305 34.5864 87.8641 34.5069 87.7313C34.4371 87.6019 34.388 87.4625 34.3616 87.3182C34.3335 87.1619 34.3136 87.0043 34.3019 86.846C34.2771 86.5017 34.2646 86.1328 34.2646 85.7394C34.2646 84.677 34.3479 84.0032 34.5144 83.7179C34.6209 83.5559 34.7716 83.4269 34.949 83.346C35.1264 83.2651 35.3233 83.2354 35.517 83.2605C35.6139 83.2605 35.7555 83.2703 35.9419 83.29C36.1283 83.3097 36.3979 83.3318 36.7507 83.3564C37.7074 83.4129 38.8541 83.4412 40.191 83.4412H41.8198C43.6809 83.4412 44.9233 83.4117 45.547 83.3527C46.1707 83.2937 46.5621 83.2629 46.7211 83.2605C46.8655 83.2588 47.0092 83.2812 47.146 83.3269C47.2636 83.3644 47.3699 83.4304 47.4554 83.5187C47.5794 83.665 47.6445 83.8516 47.638 84.0425C47.638 84.3597 47.6281 84.6143 47.6082 84.8061C47.5883 84.9979 47.5672 85.2242 47.5448 85.4848C47.5225 85.7455 47.4927 86.016 47.4554 86.2964C47.4157 86.7662 47.3013 87.2268 47.1162 87.6612C47.0671 87.7405 46.9987 87.8063 46.9174 87.8527C46.836 87.899 46.7442 87.9245 46.6503 87.9268C46.4862 87.9288 46.3225 87.9127 46.162 87.8789V87.2776C46.1709 86.8293 46.1385 86.3811 46.0651 85.9386C46.025 85.6519 45.8806 85.3895 45.6588 85.2008C45.3982 85.0181 45.0907 84.912 44.7718 84.8946C44.2611 84.8512 43.7486 84.834 43.2361 84.843H42.0807V95.8172C42.0807 96.2746 42.4534 96.5931 43.1989 96.7726L43.7132 96.8759L44.1903 96.9755C44.3191 97.0043 44.4442 97.0476 44.563 97.1046C44.6612 97.1498 44.7433 97.2233 44.7985 97.3154C44.8537 97.4076 44.8795 97.5141 44.8724 97.6211C44.8808 97.7995 44.8297 97.9758 44.727 98.1227V98.1227Z" fill="black"/>
<path fill-rule="evenodd" clip-rule="evenodd" d="M62.2116 93.9247C62.3615 93.7888 62.5562 93.7115 62.7595 93.7071C63.0539 93.7071 63.2254 93.7477 63.2701 93.8325C63.5186 94.3243 63.6428 95.1445 63.6428 96.2929C63.6794 96.8808 63.5879 97.4695 63.3745 98.0193C63.3148 98.1226 63.2552 98.1706 63.1918 98.1706H52.5543C51.7914 98.1706 51.41 97.9443 51.41 97.4918C51.396 97.2956 51.4499 97.1004 51.5628 96.9385C51.7695 97.0008 51.9842 97.0331 52.2002 97.0344C52.3778 97.037 52.5552 97.0209 52.7295 96.9864C52.8812 96.9531 53.023 96.8848 53.1432 96.7872C53.3093 96.6385 53.4377 96.4531 53.518 96.2461C53.5983 96.0391 53.6282 95.8163 53.6054 95.5958V85.9495C53.6329 85.7232 53.5808 85.4944 53.458 85.3016C53.3351 85.1088 53.1489 84.9637 52.9307 84.8908C52.8015 84.8465 52.6686 84.8072 52.5319 84.7728L52.1368 84.6695C52.0232 84.6391 51.9123 84.5996 51.8051 84.5514C51.7103 84.5134 51.6287 84.4488 51.5705 84.3656C51.5122 84.2824 51.4798 84.1842 51.4771 84.0829C51.4583 83.8828 51.5125 83.6826 51.6299 83.5186C51.7427 83.5502 51.8593 83.5663 51.9766 83.5665H61.8351C62.2157 83.5264 62.6004 83.5823 62.9533 83.7288C63.2217 83.9206 63.3571 84.3399 63.3596 84.9867C63.3711 85.4992 63.3173 86.0111 63.1993 86.5102C63.1444 86.7512 63.0683 86.9869 62.9719 87.2148C62.9339 87.2767 62.8783 87.3262 62.812 87.357C62.7457 87.3878 62.6717 87.3987 62.5992 87.3881C62.4084 87.4049 62.2166 87.3705 62.0439 87.2885C61.9432 87.2221 61.891 87.1742 61.8836 87.141C61.7991 86.2311 61.655 85.6507 61.4512 85.3999C61.26 85.1583 61.0005 84.9785 60.7058 84.8834C60.3512 84.7817 59.9827 84.7357 59.6137 84.7469H57.4668C56.7859 84.7469 56.3697 84.8133 56.2182 84.9461C56.0762 85.0657 55.9768 85.2274 55.9349 85.4072C55.8916 85.6284 55.8716 85.8534 55.8753 86.0786V90.1363H56.4455C57.7717 90.1463 59.0955 90.0227 60.3964 89.7674C60.519 89.8578 60.605 89.9887 60.6387 90.1363C60.7104 90.3316 60.7495 90.5372 60.7542 90.745C60.761 91.0527 60.7013 91.3583 60.579 91.6413C60.1541 91.6807 59.6659 91.7004 59.1142 91.7004C58.5626 91.7004 57.4867 91.6118 55.8864 91.4348V95.7359C55.8612 95.9145 55.8822 96.0965 55.9474 96.2649C56.0126 96.4333 56.1198 96.5825 56.2592 96.6987C56.6253 96.869 57.03 96.9415 57.4332 96.909L58.8869 96.8721C60.2933 96.8204 61.2089 96.6262 61.6339 96.2893C61.8697 96.1019 62.0362 95.8424 62.1072 95.5515C62.184 95.2437 62.2228 94.9279 62.2228 94.6108C62.2377 94.2936 62.2339 94.0649 62.2116 93.9247Z" fill="black"/>
<path fill-rule="evenodd" clip-rule="evenodd" d="M74.0307 98.1816C73.7213 98.1143 73.4042 98.0883 73.0877 98.1041H69.1555C68.8794 98.116 68.6044 98.0615 68.3541 97.9455C68.2536 97.8884 68.1719 97.8036 68.119 97.7015C68.0661 97.5994 68.0442 97.4842 68.056 97.3701C68.0469 97.1961 68.0982 97.0243 68.2013 96.8832C68.431 96.9452 68.6678 96.9774 68.9058 96.9791C69.085 96.9862 69.264 96.9624 69.435 96.909C69.5682 96.8577 69.6843 96.7709 69.7705 96.6581C69.9973 96.2749 70.0988 95.8317 70.0612 95.3892V85.636C70.0789 85.4671 70.0463 85.2969 69.9675 85.1462C69.8887 84.9954 69.7671 84.8708 69.6177 84.7875C69.5072 84.7418 69.3923 84.7072 69.2748 84.6842L68.8499 84.5846C68.7283 84.5556 68.6107 84.5123 68.4995 84.4555C68.417 84.4235 68.3455 84.3685 68.2939 84.2971C68.2423 84.2258 68.2128 84.1411 68.2088 84.0535C68.1886 83.83 68.2422 83.606 68.3616 83.4153C68.6748 83.483 68.9957 83.509 69.3158 83.4928H70.5681L73.9487 83.3969H74.3625C76.3503 83.3969 77.8313 83.7448 78.8053 84.4408C79.2862 84.7673 79.6753 85.2094 79.9361 85.7256C80.1969 86.2419 80.3208 86.8152 80.2962 87.3918C80.2944 88.3425 79.9643 89.264 79.3607 90.0035C78.6375 90.9063 77.6253 91.5386 76.4907 91.7963C76.9391 92.1486 77.3235 92.574 77.6275 93.0542L78.6488 94.5297C79.6055 95.9093 80.3981 96.5991 81.0268 96.5991C81.2094 96.6069 81.3921 96.5845 81.5672 96.5327L81.8095 96.4368C81.8644 96.4168 81.9225 96.4068 81.9809 96.4073C82.0443 96.4073 82.1114 96.4552 82.1822 96.5548C82.254 96.6536 82.2919 96.7726 82.2903 96.8942C82.2785 97.0574 82.2218 97.2143 82.1263 97.3479C82.0059 97.5345 81.8487 97.6951 81.6641 97.8201C81.2346 98.1399 80.7107 98.3111 80.1732 98.307C79.7195 98.3246 79.2681 98.2335 78.8575 98.0414C78.5076 97.8588 78.1893 97.6222 77.9145 97.3406C77.6201 97.0393 77.359 96.7079 77.1355 96.352C76.902 95.9831 76.682 95.6044 76.4758 95.2158L75.9093 94.0649C75.6627 93.4906 75.3365 92.953 74.9402 92.4676C74.7775 92.264 74.5407 92.1316 74.2805 92.0988H73.3077C73.1461 92.0988 73.0654 91.9844 73.0654 91.7557C73.061 91.6118 73.0928 91.4691 73.1579 91.3404C73.2229 91.2116 73.3192 91.1008 73.4381 91.0179C73.6774 90.9357 73.9308 90.9019 74.1836 90.9183C74.6646 90.8979 75.1403 90.8097 75.5962 90.6564C76.0684 90.517 76.508 90.2863 76.8895 89.9777C77.2244 89.6792 77.4873 89.3102 77.6589 88.8977C77.8305 88.4853 77.9064 88.04 77.881 87.5947C77.8942 87.2029 77.8236 86.8128 77.674 86.4498C77.5243 86.0868 77.2989 85.7592 77.0125 85.4884C76.2582 84.8355 75.2777 84.497 74.2767 84.5441C73.5064 84.5441 72.9921 84.6584 72.7337 84.8871C72.4752 85.1158 72.3411 85.5265 72.3311 86.1192V95.854C72.3311 96.3458 72.4728 96.6643 72.756 96.8094C72.8765 96.8559 73.0014 96.8905 73.1287 96.9127L73.5574 97.0123C73.679 97.0413 73.7966 97.0847 73.9077 97.1414C73.9912 97.1743 74.0631 97.2305 74.1147 97.3033C74.1663 97.376 74.1954 97.462 74.1985 97.5508C74.214 97.7736 74.155 97.9952 74.0307 98.1816V98.1816Z" fill="black"/>
<path fill-rule="evenodd" clip-rule="evenodd" d="M91.0678 98.2075C90.7546 98.1401 90.4338 98.1141 90.1137 98.1301H86.0994C85.8233 98.1419 85.5483 98.0875 85.298 97.9714C85.1921 97.9161 85.1054 97.8307 85.0489 97.7262C84.9924 97.6217 84.9689 97.5028 84.9812 97.3849C84.9721 97.211 85.0234 97.0391 85.1266 96.898C85.3578 96.9585 85.5956 96.9907 85.8348 96.9939C86.0075 97 86.1801 96.9775 86.3454 96.9275C86.4749 96.8807 86.5876 96.7973 86.6697 96.6877C86.9013 96.3343 87.0123 95.9167 86.9865 95.4962V85.7651C86.9865 85.2733 86.8449 84.9585 86.5616 84.8208C86.4426 84.7675 86.3174 84.7291 86.1889 84.7065L85.7304 84.6069C85.6016 84.578 85.4766 84.5346 85.3577 84.4777C85.2595 84.4326 85.1774 84.3591 85.1222 84.2669C85.067 84.1748 85.0412 84.0682 85.0483 83.9613C85.0342 83.7753 85.0856 83.5903 85.1937 83.4375C85.5069 83.5052 85.8277 83.5312 86.1479 83.515H90.0876C90.3649 83.5033 90.641 83.5577 90.8926 83.6736C90.9942 83.7299 91.077 83.8143 91.1306 83.9166C91.1842 84.0189 91.2065 84.1344 91.1946 84.249C91.2061 84.4245 91.1517 84.5979 91.0417 84.736C90.7799 84.6701 90.5106 84.6378 90.2404 84.6401C89.6167 84.6401 89.2961 85.1417 89.2787 86.1451V95.8799C89.2787 96.3717 89.4204 96.689 89.7037 96.8316C89.8242 96.8781 89.949 96.9127 90.0764 96.9349L90.5348 97.0345C90.6636 97.0633 90.7887 97.1066 90.9076 97.1636C91.0062 97.2089 91.089 97.2821 91.1454 97.3741C91.2018 97.4661 91.2293 97.5725 91.2244 97.68C91.2352 97.8685 91.1799 98.0548 91.0678 98.2075V98.2075Z" fill="black"/>
<path fill-rule="evenodd" clip-rule="evenodd" d="M96.1631 98.1226C95.3033 98.1226 94.8734 97.8767 94.8734 97.3848C94.8638 97.3005 94.8725 97.2151 94.8988 97.1343C94.9252 97.0535 94.9686 96.9792 95.0262 96.9164C95.2157 96.968 95.4112 96.9941 95.6077 96.9938C95.7872 96.9968 95.966 96.9706 96.137 96.9164C96.2826 96.8677 96.4178 96.7926 96.5358 96.695C96.653 96.5914 96.745 96.463 96.805 96.3193C96.865 96.1756 96.8915 96.0203 96.8824 95.8651V85.481C96.8851 85.2787 96.8281 85.08 96.7184 84.9092C96.609 84.7732 96.4568 84.6772 96.2861 84.6363C96.0922 84.5822 95.9332 84.5428 95.809 84.5182C95.6923 84.4953 95.5776 84.4632 95.4661 84.4223C95.2424 84.3264 95.1306 84.2035 95.1306 84.0534C95.1112 83.8368 95.1621 83.6197 95.276 83.4337C95.4786 83.4715 95.6848 83.4876 95.891 83.4817H97.7546C98.0577 83.4946 98.3533 83.5783 98.6176 83.7257C98.8818 83.8731 99.1072 84.0802 99.2753 84.3301L107.378 94.4928V85.6138C107.379 85.3912 107.324 85.1718 107.218 84.9756C107.164 84.8869 107.091 84.8105 107.005 84.7514C106.919 84.6923 106.822 84.6518 106.719 84.6326C106.485 84.576 106.278 84.533 106.096 84.5035C105.932 84.4795 105.771 84.44 105.615 84.3854C105.315 84.2846 105.164 84.1198 105.164 83.8911C105.159 83.8116 105.169 83.7317 105.196 83.6563C105.222 83.5808 105.263 83.5114 105.317 83.4522C105.52 83.49 105.726 83.506 105.932 83.5001H109.816C110.676 83.5001 111.106 83.6809 111.106 84.0424C111.129 84.2592 111.078 84.4776 110.96 84.6621C110.779 84.6152 110.592 84.5929 110.405 84.5957C110.196 84.5957 110.015 84.5957 109.861 84.5957C109.715 84.6024 109.574 84.6428 109.447 84.7137C109.301 84.8111 109.184 84.9459 109.109 85.1037C109.034 85.2616 109.004 85.4366 109.022 85.6101V97.8312C109.022 98.0156 108.97 98.13 108.869 98.1706C108.688 98.2223 108.499 98.2435 108.31 98.2333C107.853 98.2333 107.365 97.9 106.845 97.2336L98.5149 86.8717V95.9942C98.502 96.2281 98.5732 96.459 98.7157 96.646C98.8583 96.833 99.0631 96.9641 99.2939 97.016C99.4803 97.0553 99.6654 97.0873 99.8493 97.1119C100.013 97.1339 100.174 97.1659 100.334 97.2078C100.662 97.2914 100.826 97.4377 100.826 97.6467C100.838 97.8325 100.787 98.0169 100.68 98.1706C100.478 98.1327 100.272 98.1167 100.065 98.1226H96.1631Z" fill="black"/>
<path fill-rule="evenodd" clip-rule="evenodd" d="M128.884 91.2245C128.955 91.4049 128.994 91.5957 129 91.7889C129.011 91.9041 128.986 92.0199 128.929 92.1209C128.882 92.1849 128.817 92.2347 128.743 92.2648C128.656 92.2998 128.566 92.3258 128.474 92.3422C128.343 92.373 128.217 92.424 128.102 92.4935C127.818 92.6533 127.677 93.0726 127.677 93.7514V95.9647C127.535 96.2122 127.357 96.4372 127.148 96.6323C126.821 96.9475 126.451 97.2146 126.048 97.4254C124.908 98.0508 123.624 98.3724 122.321 98.3587C121.179 98.3928 120.042 98.2151 118.966 97.8349C118.12 97.5121 117.356 97.0083 116.73 96.3594C115.53 95.1076 114.93 93.439 114.93 91.3536C114.909 90.1833 115.121 89.0203 115.552 87.9304C115.929 86.9873 116.502 86.1329 117.233 85.422C117.955 84.738 118.808 84.2038 119.742 83.8509C120.676 83.498 121.672 83.3336 122.671 83.3673C124.41 83.3673 125.711 83.6784 126.574 84.3006C126.887 84.5056 127.145 84.7844 127.323 85.1121C127.501 85.4398 127.595 85.8061 127.595 86.1782C127.605 86.3852 127.573 86.5921 127.502 86.7871C127.431 86.9821 127.322 87.1612 127.181 87.3144C127.048 87.4503 126.888 87.557 126.711 87.6275C126.534 87.6981 126.343 87.7309 126.152 87.7238C125.881 87.7444 125.609 87.6948 125.362 87.58C125.397 87.3356 125.413 87.089 125.411 86.8422C125.41 86.54 125.343 86.2415 125.213 85.968C125.089 85.6935 124.887 85.4604 124.632 85.2966C124.021 84.9584 123.325 84.8009 122.626 84.8429C121.849 84.8251 121.075 84.9412 120.338 85.1859C119.724 85.4031 119.173 85.7667 118.735 86.2446C117.831 87.2283 117.378 88.6706 117.378 90.5716C117.378 94.7523 119.182 96.8426 122.79 96.8426C123.545 96.861 124.296 96.728 124.997 96.4516C125.166 96.3869 125.323 96.2933 125.459 96.1749V93.4489C125.459 92.9915 125.157 92.6767 124.553 92.5045C124.404 92.4652 124.254 92.4308 124.102 92.4013L123.644 92.3017C123.514 92.2734 123.388 92.2275 123.271 92.1652C123.174 92.1209 123.092 92.0486 123.037 91.9578C122.982 91.867 122.956 91.7619 122.962 91.6561C122.946 91.4711 122.997 91.2865 123.107 91.136C123.42 91.2035 123.741 91.2295 124.061 91.2135L128.884 91.2245Z" fill="black"/>
<path fill-rule="evenodd" clip-rule="evenodd" d="M126.916 11.8052C126.217 11.8054 125.52 11.7324 124.837 11.5876C123.01 11.2025 121.332 10.3108 119.999 9.01673C118.666 7.72268 117.732 6.07975 117.308 4.28C116.982 2.87812 116.982 1.42128 117.308 0.0194092H11.6924C12.0189 1.42123 12.0189 2.87818 11.6924 4.28C11.2677 6.07975 10.3342 7.72268 9.00096 9.01673C7.66769 10.3108 5.98976 11.2025 4.16333 11.5876C2.78993 11.8736 1.37077 11.8673 0 11.5691L0 67.0305C1.37209 66.7385 2.79125 66.7385 4.16333 67.0305C5.98976 67.4156 7.66769 68.3073 9.00096 69.6014C10.3342 70.8954 11.2677 72.5384 11.6924 74.3381C12.0189 75.7399 12.0189 77.1969 11.6924 78.5987H117.308C116.982 77.1968 116.982 75.74 117.308 74.3381C117.902 71.8479 119.46 69.6877 121.646 68.3214C123.832 66.9551 126.472 66.4917 129 67.0305V11.5691C128.316 11.7204 127.617 11.7995 126.916 11.8052V11.8052ZM113.062 74.3381H15.9377C15.4786 71.4131 14.0896 68.709 11.9723 66.6183C9.85511 64.5275 7.11979 63.1589 4.16333 62.7109V15.8961C7.12063 15.4472 9.85644 14.0773 11.9737 11.9852C14.0909 9.89308 15.4795 7.18765 15.9377 4.26155H113.062C113.52 7.18712 114.908 9.89216 117.025 11.9842C119.141 14.0763 121.876 15.4465 124.833 15.8961V62.7109C121.877 63.1596 119.143 64.5286 117.026 66.6193C114.91 68.71 113.521 71.4137 113.062 74.3381Z" fill="black"/>
<path fill-rule="evenodd" clip-rule="evenodd" d="M56.9747 29.8352C56.8368 29.9643 56.7846 30.134 56.9151 30.2262L60.7318 35.2208C60.7497 35.2497 60.7612 35.2819 60.7656 35.3155C60.7701 35.349 60.7672 35.3831 60.7574 35.4155C60.7475 35.448 60.7309 35.4779 60.7085 35.5035C60.6861 35.5291 60.6584 35.5497 60.6274 35.5639C60.4932 35.6451 60.3553 35.6819 60.2547 35.5934L56.4529 30.5951C56.4084 30.5349 56.3416 30.4947 56.2672 30.4833C56.1927 30.4718 56.1168 30.4902 56.056 30.5342C55.9952 30.5782 55.9545 30.6443 55.943 30.718C55.9315 30.7917 55.95 30.8669 55.9945 30.9271L59.8186 35.918C59.9006 36.0066 59.8447 36.1799 59.7105 36.2611C59.5763 36.3422 59.4422 36.3791 59.3564 36.2906L55.536 31.2996C55.5151 31.2678 55.4878 31.2406 55.4559 31.2195C55.424 31.1985 55.3881 31.1841 55.3504 31.1771C55.3127 31.1702 55.2739 31.171 55.2365 31.1793C55.1991 31.1876 55.1638 31.2034 55.1327 31.2257C55.1016 31.2479 55.0754 31.2762 55.0557 31.3087C55.036 31.3413 55.0232 31.3775 55.0181 31.4151C55.0129 31.4527 55.0155 31.491 55.0257 31.5276C55.036 31.5641 55.0536 31.5983 55.0776 31.6279L58.8905 36.6152C58.98 36.7111 58.9241 36.8808 58.7862 36.962C58.6483 37.0431 58.5178 37.08 58.4321 36.9841L54.6191 31.9968C54.5744 31.9365 54.5074 31.896 54.4327 31.8843C54.3581 31.8726 54.2817 31.8905 54.2203 31.9341H54.1793C54.1281 31.9753 54.0936 32.0334 54.082 32.0977C54.0703 32.162 54.0824 32.2283 54.1159 32.2845L57.7724 38.135C58.1296 38.6242 58.6539 38.9686 59.2482 39.1043C59.8424 39.2399 60.4662 39.1577 61.0039 38.8728L61.1418 38.7916C63.6875 42.7165 68.969 50.0093 69.2299 50.3671C69.4033 50.5821 69.6546 50.7215 69.9304 50.7557C70.2061 50.7899 70.4845 50.7161 70.7061 50.5502C70.9277 50.3843 71.0751 50.1392 71.1168 49.8673C71.1585 49.5954 71.0913 49.3181 70.9295 49.0945C70.6351 48.7736 64.9659 41.7685 61.8313 38.2531L61.9692 38.1719C62.8116 37.2054 62.9607 35.9586 62.1295 34.8999L57.3288 29.8499C57.2809 29.8067 57.2192 29.7815 57.1545 29.7788C57.0897 29.7761 57.0261 29.7961 56.9747 29.8352V29.8352Z" fill="black"/>
<path fill-rule="evenodd" clip-rule="evenodd" d="M70.1207 36.9104C71.6451 34.6971 72.357 31.5395 71.0972 30.6394C69.8374 29.7393 66.9973 31.5321 65.484 33.6864C64.0676 35.6562 64.2205 37.3051 65.2343 38.2236C62.163 41.9124 56.5572 49.4339 56.5572 49.4339C56.4766 49.5478 56.4195 49.6762 56.3892 49.8119C56.3589 49.9476 56.356 50.0879 56.3807 50.2247C56.4054 50.3616 56.4571 50.4922 56.5329 50.6092C56.6087 50.7262 56.7072 50.8272 56.8226 50.9064C56.938 50.9856 57.068 51.0415 57.2053 51.0708C57.3426 51.1001 57.4844 51.1023 57.6225 51.0772C57.7606 51.0521 57.8924 51.0003 58.0102 50.9246C58.128 50.849 58.2296 50.7511 58.309 50.6365C58.309 50.6365 63.4862 42.8088 65.9424 38.6884C67.1501 39.3266 68.7453 38.8728 70.1207 36.9104Z" fill="black"/>
<path fill-rule="evenodd" clip-rule="evenodd" d="M35.1218 53.3957L30.0528 53.2038H25.4645C24.9316 53.2207 24.402 53.1146 23.9177 52.894C23.5027 52.6899 23.2953 52.4353 23.2953 52.1304C23.2569 51.7188 23.3508 51.3056 23.5636 50.95C23.9858 51.0672 24.4222 51.1268 24.8607 51.127C25.2354 51.1329 25.6099 51.1033 25.9789 51.0385C26.2749 50.9829 26.5527 50.8562 26.7877 50.6696C27.3319 50.2466 27.6052 49.5089 27.6077 48.4563V30.536C27.6077 29.4441 26.9206 28.7642 25.5465 28.4961C24.959 28.4187 24.3935 28.2242 23.8842 27.9243C23.7737 27.847 23.6826 27.7456 23.6179 27.6279C23.5533 27.5102 23.5169 27.3794 23.5114 27.2456C23.4616 26.8546 23.5628 26.4593 23.7947 26.139C23.9861 26.1946 24.1842 26.2244 24.3836 26.2275H29.7509C30.0242 26.2275 30.3857 26.2164 30.8355 26.1943L32.3487 26.1058C33.8396 26.0344 35.3604 25.9988 36.9109 25.9988C38.4418 25.9978 39.9669 26.1862 41.4507 26.5595C42.7883 26.8767 44.0726 27.3837 45.2637 28.0645C46.2759 28.6501 47.1828 29.3981 47.9473 30.2778C48.6436 31.0856 49.2265 31.9827 49.6804 32.9448C50.4851 34.7754 50.8854 36.755 50.8545 38.751C50.8545 42.6464 49.8357 45.884 47.7982 48.4637C46.198 50.495 43.8448 51.9238 40.7388 52.7501C38.9022 53.2027 37.0144 53.4197 35.1218 53.3957ZM31.7971 48.9691C31.7971 49.8495 32.0754 50.4188 32.632 50.677C33.1066 50.8885 34.2409 50.9942 36.035 50.9942C37.6764 51.023 39.3068 50.7232 40.8282 50.1126C42.1255 49.6035 43.2772 48.7879 44.1828 47.737C45.6737 45.9418 46.4191 43.4137 46.4191 40.1528C46.4191 34.5556 44.4213 30.9012 40.4257 29.1896C38.7244 28.5212 36.9031 28.2036 35.0734 28.2563C33.662 28.2563 32.8022 28.3941 32.4941 28.6695C32.1909 28.9361 31.9874 29.2961 31.9164 29.6913C31.829 30.2291 31.7903 30.7735 31.8008 31.3181L31.7971 48.9691Z" fill="black"/>
<path fill-rule="evenodd" clip-rule="evenodd" d="M94.9142 51.0866C95.2833 51.1553 95.6571 51.196 96.0324 51.2083C96.283 51.2098 96.533 51.1838 96.7779 51.1308C97.0045 51.0843 97.2214 50.9995 97.419 50.88C97.6247 50.7563 97.7923 50.5791 97.9033 50.3678C98.0144 50.1564 98.0647 49.9189 98.0489 49.6811C98.0278 49.1528 97.8837 48.6365 97.6277 48.1724L95.9802 44.1147H84.873L82.8752 49.0614C82.7266 49.3705 82.6321 49.7023 82.5957 50.0426C82.5851 50.1986 82.6187 50.3545 82.6926 50.4927C82.7677 50.6011 82.8706 50.6877 82.9908 50.7435C83.1498 50.8179 83.3176 50.8724 83.4902 50.9058L84.2096 51.0976C84.7177 51.1598 85.2176 51.2761 85.7005 51.4444C85.9009 51.519 86.0738 51.652 86.1962 51.8259C86.3187 51.9998 86.3849 52.2063 86.3863 52.4182C86.3937 52.7061 86.3002 52.9876 86.1217 53.215C85.9212 53.1608 85.7145 53.1323 85.5067 53.1302H78.369C76.8135 53.1302 76.0357 52.7072 76.0357 51.8612C76.0202 51.5231 76.1128 51.1888 76.3004 50.9058C76.6566 51.0099 77.0249 51.0681 77.3962 51.0792C77.6519 51.0853 77.906 51.0375 78.1416 50.939C78.3706 50.828 78.5718 50.668 78.7305 50.4705C79.2137 49.7648 79.5904 48.9931 79.8487 48.1798L88.5146 27.4117C88.763 26.8559 89.4588 26.4735 90.6018 26.2645C90.9315 26.2063 91.2658 26.1779 91.6007 26.1796C92.3139 26.1796 92.7524 26.3702 92.9164 26.7514L94.672 31.1005C98.0513 38.9946 100.004 43.602 100.531 44.9225L102.112 49.0208C102.275 49.6121 102.543 50.1702 102.902 50.6697C103.092 50.8663 103.327 51.0154 103.588 51.105C103.832 51.1864 104.081 51.2529 104.333 51.3042C104.57 51.3487 104.802 51.4154 105.026 51.5034C105.219 51.566 105.387 51.6868 105.507 51.849C105.627 52.0111 105.692 52.2064 105.693 52.4072C105.701 52.695 105.607 52.9766 105.429 53.204C105.234 53.1506 105.034 53.1221 104.832 53.1191H96.4722C95.9975 53.1394 95.5236 53.0654 95.0782 52.9015C94.9346 52.8564 94.8089 52.7676 94.7192 52.6477C94.6295 52.5278 94.5804 52.383 94.5788 52.2338C94.544 51.8235 94.6634 51.415 94.9142 51.0866V51.0866ZM94.9142 41.6579L90.3186 30.407L85.8086 41.6579H94.9142Z" fill="black"/>
<path fill-rule="evenodd" clip-rule="evenodd" d="M65.2977 37.5264C66.3227 34.5163 67.8733 32.79 70.3183 30.7279C68.8882 30.9787 67.577 31.6764 66.5768 32.7187C65.5767 33.7609 64.9403 35.093 64.761 36.5194C64.758 36.7203 64.8054 36.9189 64.8991 37.0973C64.9928 37.2756 65.1298 37.4282 65.2977 37.5412V37.5264Z" fill="black"/>
<path fill-rule="evenodd" clip-rule="evenodd" d="M65.1521 44.3618C65.1521 44.3618 66.7026 46.6046 66.848 46.8075L68.9502 49.718C69.1268 50.0368 69.4162 50.2798 69.7627 50.4004C70.5417 50.5627 69.7068 49.7918 69.5465 49.6184C68.2942 48.2793 67.5748 47.2907 65.5658 44.8451C65.44 44.6742 65.3017 44.5127 65.1521 44.3618V44.3618Z" fill="black"/>
<path fill-rule="evenodd" clip-rule="evenodd" d="M62.0364 44.6016C62.1147 44.6532 58.4955 49.8249 58.2085 50.2381C58.1133 50.4 57.9866 50.5417 57.8358 50.6549C57.739 50.7234 57.6231 50.7602 57.5041 50.7602C57.3851 50.7602 57.2691 50.7234 57.1724 50.6549C58.7639 48.8695 60.1802 46.9661 61.6451 45.0774C61.7632 44.9093 61.894 44.7502 62.0364 44.6016V44.6016Z" fill="black"/>
<path fill-rule="evenodd" clip-rule="evenodd" d="M57.2021 36.866C57.3208 37.3391 57.5691 37.7705 57.9196 38.1128C58.2701 38.4552 58.7093 38.6952 59.1888 38.8064C59.8347 38.9197 60.5001 38.788 61.0524 38.4375C60.3358 38.4456 59.6249 38.3096 58.9631 38.0375C58.3012 37.7655 57.7021 37.3632 57.2021 36.855V36.866Z" fill="black"/>
</g>
<defs>
<clipPath id="clip0">
<rect width="129" height="112" fill="white"/>
</clipPath>
</defs>
</svg>
