<svg width="221" height="90" viewBox="0 0 221 90" fill="none" xmlns="http://www.w3.org/2000/svg">
<path d="M0 82.4V75.2H3.4L5.5 78.2C6.7 79.8 7.7 81.2 7.8 81.2C7.9 81.2 8.8 79.9 10 78.2L12 75.2H15.1V89.6H11.9V85.1V80.6L9.9 83.3C8.6 84.9 7.7 86 7.6 86C7.4 86 6.5 84.9 5.4 83.4C4.4 82 3.5 80.8 3.4 80.8C3.3 80.8 3.3 82.8 3.3 85.2V89.6L1.7 89.7H0.1V82.4H0ZM21.1 89.4C20.8 89.3 20.5 89.1 20.5 89C20.5 88.9 20.7 88.3 21 87.6C21.5 86.3 21.5 86.3 22 86.5C22.7 86.8 23.4 86.5 23.6 86C23.8 85.6 23.5 85.1 20.7 80.5C19 77.7 17.7 75.4 17.7 75.3C17.7 75.3 18.5 75.2 19.5 75.3L21.3 75.4L23.2 78.7C24.3 80.5 25.2 82 25.3 82.1C25.4 82.1 26.1 80.6 26.8 78.8L28.2 75.4L29.9 75.3C31.4 75.3 31.6 75.3 31.5 75.6C31.2 76.5 26.4 87.2 25.9 87.9C25.1 89.1 24.1 89.6 22.8 89.7C22.2 89.6 21.4 89.5 21.1 89.4ZM33.5 87.7C34.2 86.6 35.4 84.9 36.1 84L37.4 82.2L34.9 78.8L32.4 75.4L34.2 75.3C35.2 75.3 36.1 75.3 36.2 75.4C36.3 75.5 37.3 76.9 38.4 78.5C39.5 80.1 40.4 81.4 40.5 81.4C40.5 81.4 40.6 80 40.6 78.4V75.4L43.9 75.3L44 78.3V81.3L46.1 78.3C47.2 76.7 48.3 75.3 48.4 75.3C48.5 75.3 49.4 75.2 50.3 75.3L52 75.4L49.5 78.8L47 82.1L47.6 82.9C48.3 83.9 51.9 89 52.1 89.3C52.2 89.5 51.8 89.5 50.3 89.5H48.4L46.2 86.1L43.9 82.7V89.4H40.5L40.6 86.1C40.6 84.3 40.6 82.8 40.6 82.8C40.5 82.8 39.5 84.3 38.3 86.1L36 89.6H32.2L33.5 87.7ZM57.2 89.3C56.3 89 55.1 88.1 54.4 87.4C54.1 87.1 53.6 86.3 53.3 85.6C52.8 84.5 52.7 84.3 52.7 82.4C52.7 80.4 52.7 80.3 53.3 79C54.6 76.2 57.1 74.8 60.6 75C61.8 75.1 62.3 75.2 63.3 75.7C64 76 64.5 76.4 64.5 76.5C64.5 76.7 64.2 77.1 63.3 78.6L63.1 79L62.4 78.6C62 78.4 61.3 78.2 60.7 78.1C58.1 77.8 56.2 79.6 56.2 82.3C56.2 84.2 57 85.6 58.6 86.3C59.4 86.7 59.8 86.7 60.9 86.7C61.8 86.6 62.4 86.5 62.9 86.2C63.3 86 63.7 85.8 63.7 85.9C63.7 85.9 64 86.5 64.4 87.1L65 88.3L64.5 88.7C63.6 89.4 62.6 89.7 60.1 89.6C58.7 89.6 57.6 89.5 57.2 89.3ZM67.7 82.4V75.2H70.9L71 78.3V81.4L73.3 78.3L75.6 75.2H77.6C79.1 75.2 79.5 75.3 79.4 75.4C79.3 75.5 78.1 77 76.8 78.6C75.4 80.3 74.3 81.7 74.3 81.8C74.3 81.9 75.6 83.6 77.1 85.6C78.6 87.6 79.9 89.3 79.9 89.4C79.9 89.5 79 89.5 77.9 89.5H75.9L73.5 86.1L71 82.9V86.3L70.9 89.7H67.7V82.4ZM82.3 82.4V75.2H84L85.7 75.3V79.7C85.7 82.1 85.7 84.1 85.8 84.1C85.8 84.1 87.3 82.1 89 79.7L92.1 75.3H95V89.7H91.8V85.4C91.8 83 91.7 81.1 91.7 81.1C91.6 81.1 90.2 83 88.5 85.4L85.4 89.7H83.9H82.4V82.4H82.3ZM99 82.4V75.2H107.5V78.3L104.9 78.4H102.3L102.2 79.6L102.1 80.8H106.8V83.8L104.5 83.9L102.2 84L102.1 85.3L102 86.6H107.4V89.7H99V82.4ZM118.7 89.1C115.8 87.7 114.3 84.6 114.9 81.1C115.5 77.2 118.2 75 122.2 75C124 75 126.6 75.9 126.6 76.5C126.6 76.6 126.3 77.2 125.9 77.8L125.2 78.9L124.5 78.5C124.1 78.3 123.3 78.1 122.8 78C120.9 77.8 119.5 78.6 118.7 80.2C118.3 81 118.3 81.4 118.3 82.5C118.3 83.2 118.5 84 118.7 84.3C119.1 85.1 120.1 86 120.9 86.3C121.9 86.7 123.8 86.6 124.9 86C125.3 85.8 125.7 85.6 125.7 85.7C125.7 85.7 126 86.3 126.3 86.9C127 88.2 127 88.3 125.5 89C124.6 89.4 124.4 89.5 122.1 89.5C119.9 89.6 119.7 89.6 118.7 89.1ZM132.3 83.9V78.2H128V75.1H139.9V78.1L137.8 78.2L135.7 78.3L135.6 89.5H132.4V83.9H132.3ZM142.4 82.4V75.2L145.7 75.3C148.7 75.4 149.1 75.4 149.9 75.8C151.5 76.5 152.4 77.8 152.6 79.4C152.8 81.4 151.9 83.2 150.1 84.2C149.3 84.7 148.9 84.7 147.4 84.8L145.6 84.9V89.7H142.4V82.4ZM148.5 81.2C149 80.8 149.1 80.6 149.1 79.9C149.1 78.6 148.4 78.1 146.7 78.2L145.8 78.3L145.7 79.7C145.7 80.5 145.7 81.2 145.7 81.4C145.8 81.6 146.1 81.6 146.9 81.6C147.8 81.7 148 81.6 148.5 81.2ZM155.7 82.4V75.2H158.9L159 84.1L162.2 79.7L165.3 75.3L166.8 75.2L168.3 75.1V89.5H164.9L165 85.2C165 82.8 165 80.9 164.9 80.9C164.8 80.9 163.4 82.8 161.7 85.2L158.7 89.4L157.2 89.5H155.7V82.4ZM170.6 89.5C170.6 89.4 171.7 87.8 173.1 85.8C174.5 83.8 175.6 82.2 175.6 82.1C175.6 82.1 174.5 80.5 173.2 78.7C171.9 76.9 170.8 75.3 170.8 75.3C170.8 75.2 171.6 75.2 172.7 75.2H174.6L176.7 78.3L178.9 81.4L179 78.3V75.2H182.2L182.3 81.4L184.4 78.3L186.6 75.2H188.5C189.5 75.2 190.4 75.2 190.4 75.3C190.4 75.3 189.3 76.9 188 78.7C186.5 80.8 185.6 82.1 185.7 82.3C185.8 82.4 186.9 84.1 188.2 86C189.5 87.9 190.6 89.5 190.6 89.6C190.6 89.7 189.8 89.7 188.7 89.7H186.8L182.3 83L182.2 86.4V89.8H179V86.4L178.9 83L176.7 86.4L174.5 89.8H172.6C171.5 89.6 170.6 89.6 170.6 89.5ZM192.8 82.4V75.2H194.5L196.2 75.3V78.3C196.2 80 196.2 81.3 196.3 81.3C196.4 81.3 197.4 79.9 198.6 78.2L200.8 75.2H202.7C203.8 75.2 204.6 75.2 204.6 75.3C204.6 75.4 200.5 80.5 199.6 81.5C199.4 81.8 199.6 82.1 202.2 85.7L205.1 89.6H203H200.9L198.6 86.3C197.3 84.5 196.2 83 196.2 83C196.1 83 196.1 84.5 196.2 86.3L196.3 89.6H192.9V82.4H192.8ZM207.5 82.4V75.2H210.7L210.8 84L217.1 75.2H219.9V89.6H216.7V85.2V80.8L213.6 85.2L210.5 89.6H207.7V82.4H207.5ZM0 68.2V66.6H220.1V69.8H0V68.2ZM10.5 61C6.9 60.3 4 58.4 2.1 55.3C0.2 52.3 -0.3 47.9 0.9 44.6C1.8 42 4.2 39.3 6.6 38.1C11.2 35.7 16.8 36.1 20.6 39.2C22.2 40.5 22.1 40.4 20.8 41.9C20.2 42.6 19.5 43.3 19.3 43.3C19.1 43.3 18.7 43.1 18.3 42.7C16.8 41.3 14.1 40.5 12 40.7C7.6 41.1 4.6 44.1 4.3 48.4C3.9 53.8 9.4 58.1 14.8 56.7C16.4 56.3 17.5 55.6 18.7 54.5C19.2 54 19.8 53.6 19.9 53.6C20.2 53.6 22.4 56.3 22.4 56.6C22.4 56.7 21.9 57.3 21.2 57.9C19.9 59.1 17.7 60.3 16 60.7C14.8 61.1 11.7 61.2 10.5 61ZM193.1 59.6C192.6 58.7 192 57.9 191.9 57.7C191.8 57.5 190.3 55.1 188.6 52.3C185.1 46.4 180.3 38.7 180.1 38.4C180 38.2 179.8 38.4 179.4 38.9C178.9 39.7 175.8 44.8 175.2 45.8C175 46.1 173.3 49.1 171.3 52.4C169.3 55.7 167.4 59 167 59.6C166.2 60.9 166 61 165 60.5C163.9 59.9 163.8 60.3 167 53C167.7 51.5 169.1 48.2 170.2 45.8C171.3 43.4 172.3 41 172.5 40.5C172.7 40 173.3 38.8 173.7 37.8C174.1 36.8 174.8 35.2 175.3 34.3C175.7 33.4 176.1 32.5 176.1 32.4C176.1 31.9 173.3 28.1 171.5 26.3C167.8 22.5 162.5 18.8 160.7 18.7C158.8 18.6 157.2 17.8 155.6 16.2C153.7 14.3 152.8 12.4 152.6 9.8C152.4 7.1 153.1 5 155 2.8C156 1.7 156.1 1.6 157.5 1.2C161.8 -0.200002 165.7 1.7 167.9 6.2C169.5 9.5 169.2 13.3 167 16.2L166.3 17.1L167.7 18.2C169.2 19.4 171.3 20.9 173.8 22.4C176.1 23.8 181.1 26.7 181.3 26.7C181.6 26.7 182.1 27.5 182.9 29.2C183.8 31.4 186.2 36.8 186.9 38.5C187.2 39.1 189 43.3 190.9 47.7C195.7 58.7 195.9 59.4 195.9 59.9C195.9 60.4 195 61.2 194.5 61.2C194.2 61.2 193.8 60.6 193.1 59.6ZM180 30.8C180.4 30.3 179.8 29.5 179.2 29.7C178.5 29.9 178.8 31 179.5 31C179.6 31.1 179.9 31 180 30.8ZM162.9 15.1C163.9 14.7 164.9 13.5 165.3 12.4C165.8 11 165.6 8.9 164.9 7.5C163.8 5.4 162.3 4.2 160.5 4C156.8 3.6 154.7 8.4 156.8 12.4C157.3 13.4 158.6 14.6 159.5 15C160.7 15.5 161.9 15.6 162.9 15.1ZM33 60.4C33 60.3 32.9 56 32.9 50.8V41.4H29.1C26.6 41.4 25.2 41.3 25.1 41.1C24.9 40.9 24.9 40.4 24.9 39.1L25 37.3H34.8C41.9 37.3 44.7 37.3 44.8 37.5C45.1 37.7 45.1 40.6 44.9 41.1C44.8 41.3 44 41.4 40.9 41.5H37V50.8C37 57.3 36.9 60.2 36.8 60.4C36.4 60.7 33.1 60.7 33 60.4ZM49.4 60.5C49.2 60.4 49.2 57.9 49.2 48.8V37.3H55.8C61.4 37.3 62.6 37.3 63.4 37.5C64.6 37.9 65.5 38.4 66.4 39.4C67.3 40.4 67.7 41.3 68 42.9C68.2 44 68.2 44.4 67.9 45.6C67.5 47.7 66.8 48.8 65.3 49.8C63.9 50.8 63.1 51 58.6 51.1C56.1 51.2 54.3 51.3 53.9 51.5L53.2 51.7V56C53.2 59.1 53.1 60.3 53 60.5C52.8 60.7 49.7 60.7 49.4 60.5ZM55.6 46.9C56.3 46.8 58.1 46.7 59.5 46.7C62.3 46.7 62.8 46.6 63.5 45.7C63.8 45.3 63.9 45 63.9 44.1C63.9 42.8 63.7 42.2 63 41.7C62.6 41.4 62 41.4 57.9 41.3L53.3 41.2V47.2L53.8 47.1C54 47.2 54.9 47 55.6 46.9ZM73.1 60.4C72.9 60.2 72.9 57.6 72.9 49C72.9 42.8 73 37.7 73 37.5C73.2 37.1 76.8 37.1 76.9 37.5C77 37.7 77 41.3 77 45.5C77 49.7 77.1 53.3 77.1 53.3C77.2 53.3 78.1 52.2 79.2 50.8C80.3 49.4 83 45.8 85.3 42.8L89.5 37.3L91.4 37.2C92.8 37.2 93.3 37.2 93.4 37.4C93.6 37.8 93.6 60.1 93.3 60.4C93.2 60.5 92.5 60.6 91.4 60.6C90.4 60.6 89.7 60.5 89.5 60.4C89.3 60.2 89.3 58.2 89.3 52.3C89.3 47.6 89.2 44.4 89.1 44.5C89 44.5 86.2 48.2 82.8 52.6L76.7 60.6L74.9 60.7C73.9 60.6 73.3 60.6 73.1 60.4ZM99.2 60.4C99.1 60.2 99 59.5 99 58.3L99.1 56.5H100.1C101.7 56.4 102.3 56 104.9 52C106.2 50.1 107.2 48.5 107.2 48.4C107.2 48.3 106.1 46.7 104.8 44.8C100.5 38.7 100.1 38.1 100.2 37.8C100.3 37.5 100.5 37.5 102.5 37.4H104.7L105.9 39.2C110.3 46 110.6 46.2 112.4 46.5L113.2 46.6V42.2C113.2 39.8 113.3 37.7 113.3 37.6C113.4 37.4 113.9 37.4 115.3 37.4L117.2 37.5V42.1L117.3 46.7L118.2 46.6C120.1 46.3 120.2 46.3 125.1 39L126.1 37.5H128.3C130.3 37.5 130.5 37.5 130.6 37.8C130.7 38.1 130 39.2 127.1 43.4C126.7 44 125.7 45.3 125 46.5L123.6 48.5L126 52C128.8 56.1 129.3 56.6 131 56.6H132L132.1 58.4C132.2 60.8 132.2 60.8 130.1 60.7C127.1 60.6 125.9 59.6 123.3 55.3C122.4 53.9 121.4 52.2 120.9 51.5L120.1 50.3L118.9 50.6L117.7 50.9V55.6C117.7 58.7 117.6 60.3 117.4 60.5C117.1 60.8 114 60.8 113.7 60.5C113.5 60.3 113.5 59 113.5 55.6V50.9L112.3 50.6L111.1 50.3L109.8 52.3C109.1 53.4 108.1 55 107.5 55.9C105.8 58.7 104.3 60.1 102.6 60.5C101.4 60.7 99.5 60.7 99.2 60.4ZM138.3 60.4C138.2 60.3 138.2 55.9 138.2 50.6V41L136.9 39.4C136.2 38.5 135.7 37.7 135.7 37.5C135.8 37.2 136 37.2 138.1 37.1L140.4 37L144.8 42.3C147.2 45.2 149.3 47.6 149.4 47.6C149.5 47.6 150.1 47 150.8 46.2C151.4 45.4 152.5 44.1 153.2 43.3C153.9 42.5 155 41.1 155.7 40.3C156.4 39.5 157.1 38.6 157.4 38.3C157.6 38 157.9 37.6 158.1 37.4C158.4 37 158.5 37 160.8 37C163.8 37 163.9 37.1 162.1 39.2L160.9 40.7V50.3C160.9 57.6 160.8 60 160.7 60.2C160.4 60.5 157.2 60.5 157 60.2C156.9 60 156.8 57.7 156.7 52.9V45.8L153.3 49.9C150.8 52.9 149.8 54 149.5 54C149.2 54 148.3 53 145.9 50.2C144.2 48.1 142.6 46.3 142.4 46.1C142.2 45.9 142.1 46.6 142.1 53.1C142.1 59.5 142.1 60.3 141.8 60.4C141.4 60.7 138.4 60.6 138.3 60.4ZM199.3 60.4C199.2 60.2 199.1 57 199.1 48.7V37.3L201 37.2C202.1 37.2 203 37.2 203 37.2C203 37.2 203.1 39.2 203.1 41.7C203.2 45.5 203.2 46.1 203.5 46C204.3 45.8 206.7 45.8 208.7 46.1C210.9 46.4 214.2 46.5 215 46.2L215.4 46.1L215.5 41.7L215.6 37.3L217.4 37.2C218.6 37.2 219.3 37.2 219.4 37.4C219.6 37.6 219.6 39.5 219.6 48.9C219.6 57.4 219.5 60.2 219.4 60.4C219.3 60.5 218.6 60.6 217.5 60.6C216.5 60.6 215.8 60.5 215.6 60.4C215.4 60.2 215.4 58.9 215.4 55.3V50.4L215 50.5C213.9 50.8 212.2 50.8 208.8 50.4C206.8 50.2 204.8 50.1 204.4 50.1C202.9 50.3 203 49.9 203 55.4C203 58.9 202.9 60.3 202.8 60.4C202.7 60.7 199.5 60.7 199.3 60.4ZM183.9 30C183.8 29.8 183.4 29 183.1 28.4C182.8 27.6 182.4 27.1 182.1 26.9C181 26.2 181.2 25.8 183.1 24.3C183.4 24.1 184.7 23.1 186 22C187.3 21 189 19.6 189.7 19C190.5 18.4 191.5 17.6 192.1 17.1L193.1 16.3L192.6 15.7C191.4 14.3 190.7 12.1 190.7 9.8C190.7 7.9 191 6.7 191.7 5.1C193.3 1.7 197.2 -0.500002 200.4 0.199998C202.6 0.699998 204.7 2.4 205.7 4.3C207.5 7.8 206.8 12.6 204.2 15.5C202.5 17.3 200.1 18.4 198.1 18.3C196.9 18.2 196.9 18.2 195.8 19C193.8 20.4 189.4 24 188.8 24.7C188.5 25.1 187.5 26.5 186.6 27.7C184.6 30.7 184.4 30.8 183.9 30ZM199.9 14.5C202.3 13.4 203.8 10.1 203.2 7.3C203 6.4 202.1 4.8 201.4 4.2C200.8 3.7 199.8 3.3 198.9 3.3C195.6 3.3 192.9 7.9 194.1 11.5C194.7 13.3 195.9 14.5 197.4 14.8C198.4 15.1 198.9 15 199.9 14.5Z" fill="black"/>
</svg>
