<svg width="411" height="413" viewBox="0 0 411 413" fill="none" xmlns="http://www.w3.org/2000/svg">
<g clip-path="url(#clip0)">
<path d="M205.5 410.962C318.995 410.962 411 318.965 411 205.481C411 91.997 318.995 0 205.5 0C92.0055 0 0 91.997 0 205.481C0 318.965 92.0055 410.962 205.5 410.962Z" fill="#B0B0B0" fill-opacity="0.5"/>
<path d="M205.5 388.055C306.342 388.055 388.091 306.314 388.091 205.481C388.091 104.648 306.342 22.9071 205.5 22.9071C104.658 22.9071 22.9092 104.648 22.9092 205.481C22.9092 306.314 104.658 388.055 205.5 388.055Z" fill="#B0B0B0"/>
<path d="M257.815 128.554L191.139 157.274V479H257.815H324.833V157.274L257.815 128.554Z" fill="white"/>
<path d="M257.815 479H191.139V157.274L257.815 128.554V479Z" fill="#7A7A7A"/>
<path opacity="0.2" d="M234.222 138.811V479H191.139V157.274L234.222 138.811Z" fill="black"/>
<path d="M315.259 177.445L267.389 156.931V147.016L315.259 167.53V177.445Z" fill="#CCCCCC"/>
<path d="M315.259 209.584L267.389 189.07V179.155L315.259 199.669V209.584Z" fill="#CCCCCC"/>
<path d="M315.259 242.064L267.389 221.55V211.635L315.259 231.807V242.064Z" fill="#CCCCCC"/>
<path d="M315.259 274.203L267.389 253.689V243.774L315.259 264.288V274.203Z" fill="#CCCCCC"/>
<path d="M315.259 306.341L267.389 285.827V275.912L315.259 296.426V306.341Z" fill="#CCCCCC"/>
<path d="M315.259 338.479L267.389 318.307V308.051L315.259 328.564V338.479Z" fill="#CCCCCC"/>
<path d="M315.259 370.96L267.389 350.446V340.531L315.259 361.045V370.96Z" fill="#CCCCCC"/>
<path d="M315.259 403.098L267.389 382.585V372.669L315.259 393.183V403.098Z" fill="#CCCCCC"/>
<path d="M315.259 435.237L267.389 415.065V404.808L315.259 425.322V435.237Z" fill="#CCCCCC"/>
<path d="M153.185 76.2435L86.1663 104.963V426.69H153.185H219.861V104.963L153.185 76.2435Z" fill="white"/>
<path d="M153.185 426.69H86.1663V104.963L153.185 76.2435V426.69Z" fill="#7A7A7A"/>
<path d="M210.287 124.793L162.758 104.621V94.7062L210.287 114.878V124.793Z" fill="#CCCCCC"/>
<path d="M210.287 157.274L162.758 136.76V126.845L210.287 147.359V157.274Z" fill="#CCCCCC"/>
<path d="M210.287 189.412L162.758 168.898V158.983L210.287 179.497V189.412Z" fill="#CCCCCC"/>
<path d="M210.287 221.55L162.758 201.378V191.121L210.287 211.635V221.55Z" fill="#CCCCCC"/>
<path d="M210.287 254.031L162.758 233.517V223.602L210.287 244.116V254.031Z" fill="#CCCCCC"/>
<path d="M210.287 286.169L162.758 265.655V255.74L210.287 276.254V286.169Z" fill="#CCCCCC"/>
<path d="M210.287 318.308L162.758 298.136V287.879L210.287 308.393V318.308Z" fill="#CCCCCC"/>
<path d="M210.287 350.788L162.758 330.274V320.359L210.287 340.531V350.788Z" fill="#CCCCCC"/>
<path d="M210.287 382.927L162.758 362.413V352.498L210.287 373.012V382.927Z" fill="#CCCCCC"/>
</g>
<defs>
<clipPath id="clip0">
<rect width="411" height="479" fill="white"/>
</clipPath>
</defs>
</svg>
