<svg width="702" height="550" viewBox="0 0 702 550" fill="none" xmlns="http://www.w3.org/2000/svg">
<path d="M479.477 538.758C548.643 538.758 604.712 482.688 604.712 413.523C604.712 344.357 548.643 288.288 479.477 288.288C410.312 288.288 354.242 344.357 354.242 413.523C354.242 482.688 410.312 538.758 479.477 538.758Z" fill="#B0B0B0"/>
<path d="M479.478 516.083C422.792 516.083 376.917 469.944 376.917 413.523C376.917 356.837 423.056 310.962 479.478 310.962C536.163 310.962 582.038 357.101 582.038 413.523C582.302 470.208 536.163 516.083 479.478 516.083ZM479.478 313.862C424.638 313.862 379.817 358.419 379.817 413.523C379.817 468.362 424.374 513.183 479.478 513.183C534.317 513.183 579.138 468.626 579.138 413.523C579.138 358.683 534.581 313.862 479.478 313.862Z" fill="white"/>
<path d="M477.368 638.682C475.786 638.682 474.204 638.682 472.623 638.682V636.309C474.204 636.309 475.786 636.309 477.368 636.309V638.682ZM482.114 638.682V636.309C483.696 636.309 485.278 636.309 486.86 636.045V638.418C485.278 638.418 483.696 638.418 482.114 638.682ZM467.877 638.418C466.295 638.418 464.713 638.154 463.131 638.154L463.395 635.782C464.977 635.782 466.559 636.045 468.14 636.045L467.877 638.418ZM491.606 638.154L491.342 635.782C492.924 635.782 494.506 635.518 496.088 635.518L496.351 637.891C494.769 637.891 493.187 638.154 491.606 638.154ZM458.122 637.891C456.54 637.627 454.958 637.627 453.376 637.363L453.64 634.991C455.221 635.254 456.803 635.254 458.385 635.518L458.122 637.891ZM501.097 637.363L500.833 634.991C502.415 634.727 503.997 634.727 505.579 634.463L505.843 636.836C504.261 637.1 502.679 637.1 501.097 637.363ZM448.63 636.836C447.048 636.573 445.466 636.309 443.884 636.309L444.148 633.936C445.73 634.2 447.312 634.463 448.894 634.463L448.63 636.836ZM510.588 636.045L510.325 633.672C511.907 633.409 513.489 633.145 515.071 632.881L515.598 635.254C513.752 635.782 512.17 636.045 510.588 636.045ZM439.402 635.254C437.82 634.991 436.239 634.727 434.657 634.463L435.184 632.09C436.766 632.354 438.348 632.618 439.93 632.881L439.402 635.254ZM519.816 634.463L519.289 632.09C520.871 631.827 522.453 631.563 524.035 631.036L524.562 633.409C522.98 633.936 521.398 634.2 519.816 634.463ZM429.911 633.409C428.329 633.145 426.747 632.618 425.165 632.354L425.692 629.981C427.274 630.245 428.856 630.772 430.174 631.036L429.911 633.409ZM529.308 632.618L528.78 630.245C530.362 629.981 531.944 629.454 533.263 629.19L533.79 631.563C532.472 631.827 530.89 632.09 529.308 632.618ZM420.683 631.299C419.101 630.772 417.519 630.508 416.201 629.981L416.728 627.608C418.31 628.136 419.628 628.399 421.21 628.927L420.683 631.299ZM538.536 630.245L538.008 627.872C539.59 627.345 540.909 627.081 542.49 626.554L543.281 628.927C541.436 629.19 540.118 629.718 538.536 630.245ZM411.455 628.663C409.873 628.136 408.291 627.608 406.973 627.081L407.764 624.708C409.346 625.235 410.664 625.763 412.246 626.026L411.455 628.663ZM547.5 627.345L546.709 624.972C548.291 624.444 549.609 623.917 551.191 623.39L551.982 625.499C550.664 626.29 549.082 626.817 547.5 627.345ZM402.491 625.763C400.909 625.235 399.591 624.708 398.009 624.181L398.8 622.072C400.382 622.599 401.7 623.126 403.282 623.654L402.491 625.763ZM556.728 624.181L555.937 622.072C557.519 621.544 558.837 621.017 560.419 620.226L561.21 622.335C559.628 623.126 558.046 623.654 556.728 624.181ZM393.527 622.335C391.945 621.808 390.627 621.017 389.045 620.49L390.099 618.38C391.418 618.908 393 619.699 394.318 620.226L393.527 622.335ZM565.428 620.49L564.374 618.38C565.955 617.853 567.274 617.062 568.592 616.535L569.647 618.644C568.328 619.171 567.01 619.962 565.428 620.49ZM384.826 618.644C383.508 617.853 381.926 617.326 380.608 616.535L381.662 614.426C382.981 615.217 384.563 615.744 385.881 616.535L384.826 618.644ZM574.129 616.535L573.074 614.426C574.392 613.635 575.974 613.107 577.293 612.316L578.347 614.426C577.029 615.217 575.711 616.008 574.129 616.535ZM376.389 614.426C375.071 613.635 373.489 612.844 372.171 612.316L373.226 610.207C374.544 610.998 376.126 611.789 377.444 612.316L376.389 614.426ZM582.829 612.316L581.775 610.207C583.093 609.416 584.675 608.625 585.993 607.834L587.048 609.944C585.466 610.735 584.148 611.526 582.829 612.316ZM367.953 609.944C366.634 609.153 365.316 608.362 363.734 607.571L365.052 605.461C366.371 606.252 367.689 607.043 369.007 607.834L367.953 609.944ZM591.002 607.571L589.684 605.461C591.002 604.671 592.321 603.88 593.639 603.089L594.957 605.198C593.903 605.989 592.321 606.78 591.002 607.571ZM359.779 604.934C358.461 604.143 357.143 603.352 355.825 602.298L357.143 600.188C358.461 600.979 359.779 601.77 361.098 602.825L359.779 604.934ZM599.176 602.561L597.857 600.452C599.176 599.661 600.494 598.607 601.812 597.816L603.13 599.661C601.812 600.716 600.494 601.77 599.176 602.561ZM351.87 599.925C350.551 599.134 349.233 598.079 347.915 597.288L349.233 595.443C350.551 596.234 351.87 597.288 353.188 598.079L351.87 599.925ZM607.085 597.025L605.767 595.179C607.085 594.388 608.404 593.333 609.458 592.279L610.776 594.124C609.722 595.179 608.404 596.234 607.085 597.025ZM343.96 594.388C342.642 593.333 341.324 592.543 340.269 591.488L341.851 589.642C343.169 590.697 344.224 591.488 345.542 592.543L343.96 594.388ZM614.731 591.488L613.149 589.642C614.468 588.588 615.522 587.797 616.84 586.742L618.422 588.588C617.104 589.379 616.049 590.433 614.731 591.488ZM336.578 588.324C335.26 587.269 334.205 586.215 332.887 585.16L334.469 583.315C335.787 584.369 336.842 585.424 338.16 586.215L336.578 588.324ZM622.113 585.424L620.532 583.578C621.85 582.524 622.904 581.469 623.959 580.415L625.541 582.26C624.486 583.315 623.168 584.369 622.113 585.424ZM329.196 582.26C327.877 581.205 326.823 580.151 325.768 579.096L327.35 577.251C328.405 578.305 329.723 579.36 330.778 580.415L329.196 582.26ZM629.232 579.096L627.65 577.251C628.705 576.196 630.023 575.141 631.078 574.087L632.66 575.669C631.605 576.987 630.287 578.042 629.232 579.096ZM322.341 575.669C321.286 574.614 319.968 573.56 318.913 572.241L320.495 570.659C321.55 571.714 322.604 572.769 323.923 574.087L322.341 575.669ZM636.087 572.505L634.505 570.923C635.56 569.868 636.614 568.55 637.669 567.496L639.515 569.077C638.196 570.132 637.142 571.187 636.087 572.505ZM315.486 569.077C314.431 568.023 313.376 566.705 312.322 565.65L314.167 564.068C315.222 565.123 316.277 566.441 317.331 567.496L315.486 569.077ZM642.678 565.65L640.833 564.068C641.887 563.013 642.942 561.695 643.997 560.641L645.842 562.223C644.788 563.277 643.733 564.332 642.678 565.65ZM309.158 561.959C308.103 560.641 307.049 559.586 305.994 558.268L307.84 556.686C308.894 558.004 309.949 559.059 311.004 560.377L309.158 561.959ZM648.742 558.268L646.897 556.686C647.951 555.368 649.006 554.313 649.797 552.995L651.643 554.577C650.852 555.895 649.797 557.213 648.742 558.268ZM303.094 554.577C302.039 553.258 301.248 552.204 300.194 550.885L302.039 549.567C303.094 550.885 303.885 551.94 304.94 553.258L303.094 554.577ZM654.806 550.885L652.961 549.567C654.015 548.249 654.806 546.931 655.861 545.876L657.707 547.194C656.652 548.249 655.861 549.567 654.806 550.885ZM297.294 546.931C296.239 545.612 295.448 544.294 294.394 542.976L296.239 541.658C297.03 542.976 298.085 544.294 298.876 545.612L297.294 546.931ZM660.343 543.24L658.497 541.921C659.288 540.603 660.343 539.285 661.134 537.967L662.98 539.285C662.189 540.603 661.398 541.921 660.343 543.24ZM291.757 539.285C290.966 537.967 289.911 536.648 289.12 535.33L291.23 534.012C292.021 535.33 292.812 536.648 293.866 537.967L291.757 539.285ZM665.616 535.33L663.507 534.012C664.298 532.693 665.089 531.375 665.88 530.057L667.989 531.375C667.462 532.693 666.671 534.012 665.616 535.33ZM286.748 531.112C285.957 529.793 285.166 528.475 284.375 526.893L286.484 525.575C287.275 526.893 288.066 528.211 288.857 529.53L286.748 531.112ZM670.625 527.157L668.516 526.102C669.307 524.784 670.098 523.466 670.889 521.884L672.998 522.938C672.207 524.52 671.416 525.838 670.625 527.157ZM281.738 522.938C280.947 521.62 280.156 520.038 279.365 518.72L281.475 517.665C282.266 518.984 283.056 520.565 283.584 521.884L281.738 522.938ZM675.371 518.72L673.262 517.665C674.053 516.347 674.58 514.765 675.371 513.447L677.48 514.501C676.689 516.083 675.899 517.402 675.371 518.72ZM277.52 514.501C276.729 513.183 276.202 511.601 275.411 510.283L277.52 509.228C278.311 510.547 278.838 512.129 279.629 513.447L277.52 514.501ZM679.59 510.283L677.48 509.228C678.271 507.91 678.799 506.328 679.326 505.01L681.435 506.065C680.908 507.383 680.117 508.965 679.59 510.283ZM273.301 505.801C272.774 504.219 271.983 502.901 271.456 501.319L273.565 500.528C274.092 502.11 274.883 503.428 275.411 504.746L273.301 505.801ZM683.281 501.582L681.172 500.792C681.699 499.473 682.49 497.891 683.017 496.309L685.126 497.1C684.599 498.682 684.072 500.264 683.281 501.582ZM269.61 496.837C269.083 495.255 268.556 493.937 268.028 492.355L270.138 491.564C270.665 493.146 271.192 494.464 271.719 496.046L269.61 496.837ZM686.972 492.882L684.863 492.091C685.39 490.509 685.917 489.191 686.445 487.609L688.818 488.4C688.027 489.718 687.499 491.3 686.972 492.882ZM266.446 487.873C265.919 486.291 265.392 484.972 264.864 483.39L267.237 482.599C267.765 484.181 268.292 485.5 268.819 487.082L266.446 487.873ZM689.872 483.654L687.499 482.863C688.027 481.281 688.554 479.963 688.818 478.381L691.19 479.172C690.927 480.754 690.399 482.336 689.872 483.654ZM263.546 478.908C263.019 477.326 262.755 475.745 262.228 474.426L264.601 473.899C265.128 475.481 265.392 477.063 265.919 478.381L263.546 478.908ZM692.772 474.69L690.399 474.163C690.927 472.581 691.19 470.999 691.718 469.681L694.091 470.208C693.563 471.526 693.036 473.108 692.772 474.69ZM260.91 469.681C260.646 468.099 260.119 466.517 259.855 464.935L262.228 464.407C262.492 465.989 263.019 467.571 263.283 468.89L260.91 469.681ZM694.882 465.462L692.509 464.935C692.772 463.353 693.3 461.771 693.563 460.453L695.936 460.98C695.672 462.298 695.409 463.88 694.882 465.462ZM258.8 460.453C258.537 458.871 258.273 457.289 258.009 455.707L260.382 455.18C260.646 456.762 260.91 458.343 261.173 459.925L258.8 460.453ZM696.991 455.971L694.618 455.443C694.882 453.861 695.145 452.279 695.409 450.698L697.782 450.961C697.518 452.807 697.254 454.389 696.991 455.971ZM257.219 450.961C256.955 449.379 256.691 447.797 256.428 446.215L258.8 445.952C259.064 447.534 259.328 449.116 259.591 450.698L257.219 450.961ZM698.573 446.743L696.2 446.479C696.463 444.897 696.727 443.315 696.727 441.733L699.1 441.997C698.836 443.579 698.573 445.161 698.573 446.743ZM255.9 441.47C255.637 439.888 255.637 438.306 255.373 436.724L257.746 436.46C258.009 438.042 258.009 439.624 258.273 441.206L255.9 441.47ZM699.627 437.251L697.254 436.988C697.518 435.406 697.518 433.824 697.782 432.242L700.155 432.506C699.891 434.087 699.627 435.669 699.627 437.251ZM254.846 431.978C254.846 430.396 254.582 428.814 254.582 427.232H256.955C256.955 428.814 257.219 430.396 257.219 431.978H254.846ZM700.155 427.76H697.782C697.782 426.178 698.045 424.596 698.045 423.014H700.418C700.418 424.596 700.418 426.178 700.155 427.76ZM254.318 422.487C254.318 420.905 254.318 419.323 254.318 417.741H256.691C256.691 419.323 256.691 420.905 256.691 422.487H254.318ZM700.682 418.005H698.309C698.309 417.214 698.309 416.159 698.309 415.368V413.259H700.682V415.368C700.682 416.423 700.682 417.214 700.682 418.005ZM256.691 412.995H254.318C254.318 411.413 254.318 409.831 254.318 408.25H256.691C256.691 409.831 256.691 411.413 256.691 412.995ZM698.045 408.777C698.045 407.195 698.045 405.613 697.782 404.031H700.155C700.155 405.613 700.418 407.195 700.418 408.777H698.045ZM256.955 403.504H254.582C254.582 401.922 254.846 400.34 254.846 398.758L257.219 399.022C257.219 400.34 256.955 401.922 256.955 403.504ZM697.782 399.285C697.782 397.703 697.518 396.122 697.518 394.54L699.891 394.276C700.155 395.858 700.155 397.44 700.155 399.022L697.782 399.285ZM257.746 394.276L255.373 394.012C255.637 392.43 255.637 390.848 255.9 389.267L258.273 389.53C258.009 391.112 257.746 392.694 257.746 394.276ZM696.727 389.794C696.463 388.212 696.463 386.63 696.2 385.048L698.573 384.784C698.836 386.366 699.1 387.948 699.1 389.53L696.727 389.794ZM258.8 384.784L256.428 384.521C256.691 382.939 256.955 381.357 257.219 379.775L259.591 380.039C259.328 381.621 259.064 383.203 258.8 384.784ZM695.409 380.566C695.145 378.984 694.882 377.402 694.618 375.82L696.991 375.293C697.254 376.875 697.518 378.457 697.782 380.039L695.409 380.566ZM260.382 375.557L258.009 375.029C258.273 373.447 258.537 371.866 258.8 370.284L261.173 370.811C260.91 372.393 260.646 373.975 260.382 375.557ZM693.827 371.338C693.563 369.756 693.3 368.174 692.772 366.592L695.145 366.065C695.409 367.647 695.936 369.229 696.2 370.811L693.827 371.338ZM262.228 366.329L259.855 365.802C260.119 364.22 260.646 362.638 260.91 361.056L263.283 361.583C263.019 363.165 262.492 364.747 262.228 366.329ZM691.718 362.11C691.454 360.528 690.927 358.947 690.663 357.628L693.036 357.101C693.563 358.683 693.827 360.265 694.354 361.847L691.718 362.11ZM264.601 357.101L262.228 356.574C262.492 354.992 263.019 353.41 263.546 351.828L265.919 352.619C265.392 353.937 264.864 355.519 264.601 357.101ZM689.345 352.883C688.818 351.301 688.554 349.982 688.027 348.4L690.399 347.609C690.927 349.191 691.454 350.773 691.718 352.092L689.345 352.883ZM267.237 348.137L264.864 347.346C265.392 345.764 265.919 344.446 266.446 342.864L268.556 343.655C268.028 344.973 267.765 346.555 267.237 348.137ZM686.445 343.918C685.917 342.336 685.39 341.018 684.863 339.436L686.972 338.645C687.499 340.227 688.027 341.545 688.554 343.127L686.445 343.918ZM270.138 339.173L268.028 338.382C268.556 336.8 269.083 335.481 269.61 333.9L271.719 334.691C271.456 336.272 270.665 337.591 270.138 339.173ZM683.017 334.954C682.49 333.372 681.963 332.054 681.172 330.472L683.281 329.681C683.808 331.263 684.599 332.581 685.126 334.163L683.017 334.954ZM273.565 330.472L271.456 329.417C271.983 327.836 272.774 326.517 273.301 324.935L275.411 325.99C274.883 327.572 274.356 328.89 273.565 330.472ZM679.59 326.254C679.062 324.935 678.271 323.353 677.744 322.035L679.853 320.981C680.644 322.299 681.172 323.881 681.963 325.463L679.59 326.254ZM277.52 321.772L275.411 320.717C276.202 319.399 276.729 317.817 277.52 316.499L279.629 317.553C278.838 318.871 278.047 320.453 277.52 321.772ZM675.371 317.817C674.58 316.499 674.053 314.917 673.262 313.598L675.371 312.544C676.162 313.862 676.953 315.444 677.48 316.762L675.371 317.817ZM281.738 313.335L279.629 312.28C280.42 310.962 281.211 309.38 282.002 308.062L284.111 309.116C283.056 310.698 282.529 312.016 281.738 313.335ZM671.153 309.38C670.362 308.062 669.571 306.743 668.78 305.161L670.889 303.843C671.68 305.161 672.471 306.743 673.262 308.062L671.153 309.38ZM286.22 305.161L284.111 303.843C284.902 302.525 285.693 301.207 286.484 299.625L288.593 300.943C287.802 302.525 287.011 303.843 286.22 305.161ZM666.407 301.207C665.616 299.888 664.825 298.57 664.034 297.252L666.143 295.934C666.934 297.252 667.725 298.57 668.78 299.888L666.407 301.207ZM290.966 296.988L288.857 295.67C289.648 294.352 290.702 293.033 291.493 291.715L293.339 293.033C292.812 294.352 292.021 295.67 290.966 296.988ZM661.398 293.297C660.607 291.979 659.552 290.661 658.761 289.342L660.607 288.024C661.398 289.342 662.452 290.661 663.243 291.979L661.398 293.297ZM296.239 289.342L294.394 288.024C295.184 286.706 296.239 285.388 297.03 284.069L298.876 285.388C298.085 286.706 297.294 288.024 296.239 289.342ZM655.861 285.388C654.806 284.069 654.015 282.751 652.961 281.696L654.806 280.378C655.861 281.696 656.652 283.015 657.707 284.333L655.861 285.388ZM301.776 281.696L299.93 280.378C300.985 279.06 301.776 277.742 302.83 276.687L304.676 278.269C303.885 279.06 302.83 280.378 301.776 281.696ZM650.061 278.005C649.006 276.687 648.215 275.632 647.16 274.314L649.006 272.732C650.061 274.05 651.115 275.105 651.906 276.423L650.061 278.005ZM307.84 274.314L305.994 272.732C307.049 271.414 308.103 270.359 309.158 269.041L311.004 270.623C309.685 271.941 308.631 272.996 307.84 274.314ZM644.26 270.623C643.206 269.305 642.151 268.25 641.096 267.196L642.942 265.614C643.997 266.668 645.051 267.986 646.106 269.305L644.26 270.623ZM313.904 267.196L312.058 265.614C313.113 264.559 314.167 263.241 315.222 262.186L317.068 263.768C316.013 264.823 314.958 265.877 313.904 267.196ZM637.669 263.768C636.614 262.713 635.56 261.395 634.505 260.341L636.087 258.759C637.142 259.813 638.196 261.132 639.515 262.186L637.669 263.768ZM320.495 260.341L318.913 258.759C319.968 257.704 321.286 256.386 322.341 255.331L323.923 256.913C322.604 257.968 321.55 259.286 320.495 260.341ZM631.078 256.913C630.023 255.858 628.705 254.804 627.65 253.749L629.232 251.904C630.287 252.958 631.605 254.013 632.66 255.067L631.078 256.913ZM327.086 253.749L325.505 251.904C326.559 250.849 327.877 249.794 328.932 248.74L330.514 250.585C329.459 251.64 328.405 252.695 327.086 253.749ZM624.223 250.585C623.168 249.531 621.85 248.476 620.795 247.422L622.377 245.576C623.695 246.631 624.75 247.685 626.068 248.74L624.223 250.585ZM334.205 247.422L332.623 245.576C333.941 244.521 334.996 243.467 336.314 242.412L337.896 244.258C336.578 245.312 335.523 246.367 334.205 247.422ZM617.104 244.521C615.786 243.467 614.731 242.676 613.413 241.621L614.995 239.776C616.313 240.83 617.368 241.621 618.686 242.676L617.104 244.521ZM341.587 241.358L340.005 239.512C341.324 238.457 342.642 237.666 343.697 236.612L345.015 238.457C343.96 239.512 342.906 240.567 341.587 241.358ZM609.722 238.721C608.404 237.666 607.085 236.875 606.031 235.821L607.349 233.975C608.667 235.03 609.985 235.821 611.304 236.875L609.722 238.721ZM349.233 235.821L347.915 233.975C349.233 232.921 350.551 232.13 351.87 231.339L353.188 233.184C351.606 233.975 350.288 234.766 349.233 235.821ZM602.076 233.184C600.758 232.393 599.439 231.339 598.121 230.548L599.439 228.439C600.758 229.23 602.076 230.284 603.394 231.075L602.076 233.184ZM356.879 230.548L355.561 228.439C356.879 227.648 358.197 226.593 359.516 225.802L360.834 227.911C359.516 228.702 358.197 229.493 356.879 230.548ZM594.166 227.911C592.848 227.12 591.53 226.329 590.212 225.538L591.53 223.429C592.848 224.22 594.166 225.011 595.485 225.802L594.166 227.911ZM365.052 225.538L363.734 223.429C365.052 222.638 366.371 221.847 367.953 221.056L369.007 223.166C367.689 223.957 366.371 224.747 365.052 225.538ZM585.993 223.166C584.675 222.375 583.357 221.584 581.775 220.793L582.829 218.683C584.148 219.474 585.729 220.265 587.048 221.056L585.993 223.166ZM373.226 220.793L372.171 218.683C373.489 217.893 375.071 217.102 376.389 216.574L377.444 218.683C375.862 219.474 374.544 220.002 373.226 220.793ZM577.82 218.683C576.502 217.893 574.92 217.365 573.601 216.574L574.656 214.465C575.974 215.256 577.556 215.783 578.874 216.574L577.82 218.683ZM381.662 216.574L380.608 214.465C381.926 213.674 383.508 213.147 384.826 212.356L385.881 214.465C384.563 215.256 382.981 215.783 381.662 216.574ZM569.383 214.729C568.065 214.201 566.483 213.41 565.165 212.883L566.219 210.774C567.801 211.301 569.119 212.092 570.438 212.619L569.383 214.729ZM390.099 212.619L389.045 210.51C390.627 209.983 391.945 209.192 393.527 208.665L394.318 210.774C393 211.301 391.681 212.092 390.099 212.619ZM560.682 210.774C559.101 210.247 557.782 209.719 556.2 208.928L556.991 206.819C558.573 207.346 559.891 207.874 561.473 208.665L560.682 210.774ZM399.064 208.928L398.009 206.819C399.591 206.292 400.909 205.765 402.491 205.237L403.282 207.346C401.964 207.874 400.382 208.401 399.064 208.928ZM551.718 207.61C550.136 207.083 548.818 206.555 547.236 206.028L548.027 203.655C549.609 204.183 550.927 204.71 552.509 205.237L551.718 207.61ZM407.764 205.765L406.973 203.392C408.555 202.864 410.137 202.337 411.455 201.81L412.246 204.183C410.928 204.974 409.346 205.501 407.764 205.765ZM542.754 204.446C541.172 203.919 539.854 203.655 538.272 203.128L538.799 200.755C540.381 201.282 541.963 201.546 543.281 202.073L542.754 204.446ZM416.992 203.128L416.465 200.755C418.046 200.228 419.628 199.964 420.947 199.437L421.474 201.81C419.892 202.337 418.31 202.601 416.992 203.128ZM533.79 201.81C532.208 201.282 530.626 201.019 529.308 200.755L529.835 198.382C531.417 198.646 532.999 199.173 534.581 199.437L533.79 201.81ZM425.956 200.755L425.429 198.382C427.011 198.119 428.593 197.591 430.174 197.328L430.702 199.701C429.12 199.964 427.538 200.228 425.956 200.755ZM524.562 199.701C522.98 199.437 521.398 199.173 519.816 198.646L520.344 196.273C521.926 196.537 523.507 196.8 525.089 197.328L524.562 199.701ZM435.184 198.646L434.92 196.273C436.502 196.009 438.084 195.746 439.666 195.482L440.193 197.855C438.348 198.119 436.766 198.382 435.184 198.646ZM515.334 197.855C513.752 197.591 512.17 197.328 510.588 197.064L510.852 194.691C512.434 194.955 514.016 195.218 515.598 195.482L515.334 197.855ZM444.675 197.064L444.412 194.691C445.994 194.427 447.576 194.164 449.157 194.164L449.421 196.537C447.576 196.8 445.994 196.8 444.675 197.064ZM506.106 196.537C504.524 196.273 502.943 196.273 501.361 196.009L501.624 193.636C503.206 193.9 504.788 193.9 506.37 194.164L506.106 196.537ZM453.903 196.009L453.64 193.636C455.221 193.373 456.803 193.373 458.385 193.109L458.649 195.482C457.067 195.482 455.485 195.746 453.903 196.009ZM496.615 195.482C495.033 195.218 493.451 195.218 491.869 195.218L492.133 192.846C493.715 192.846 495.297 193.109 496.879 193.109L496.615 195.482ZM463.395 195.218L463.131 192.846C464.713 192.846 466.295 192.582 467.877 192.582V194.955C466.559 194.955 464.977 194.955 463.395 195.218ZM487.123 194.955C485.542 194.955 483.96 194.955 482.378 194.691V192.318C483.96 192.318 485.542 192.318 487.123 192.582V194.955ZM472.623 194.691V192.318C474.204 192.318 475.786 192.318 477.368 192.318H477.632V194.691H477.368C475.786 194.691 474.204 194.691 472.623 194.691Z" fill="#E1DDBE" stroke="#B0B0B0" stroke-miterlimit="10"/>
<path d="M264.142 601.269C258.782 584.069 239.269 513.196 224.161 446.408C214.598 377.421 194.103 303.503 192.31 291.308C190.385 278.223 179.517 278.548 173.989 296.67C164.888 326.571 177.155 410.192 205.097 448.318C205.594 449.247 205.883 449.629 206.311 450.514C214.97 469.55 232.311 573.867 236.4 607.207C237.168 612.817 239.421 618.121 242.926 622.57C246.431 627.02 251.061 630.454 256.34 632.52V632.52C260.304 628.472 263.117 623.443 264.488 617.95C265.86 612.457 265.74 606.699 264.142 601.269ZM174.315 306.042C174.303 303.817 174.648 301.605 175.336 299.488C178.378 287.999 182.881 283.301 186.866 284.19C182.942 284.827 180.335 288.555 178.37 293.063C176.598 297.247 175.24 301.594 174.315 306.042V306.042ZM210.778 452.128C208.568 452.604 207.446 450.418 207.251 449.513C208.235 450.043 209.372 450.217 210.469 450.004L222.284 447.463C222.428 447.406 222.584 447.381 222.739 447.39C222.895 447.399 223.046 447.441 223.183 447.514C223.321 447.588 223.44 447.69 223.534 447.814C223.628 447.938 223.693 448.081 223.726 448.233C223.758 448.385 223.758 448.543 223.723 448.694C223.689 448.846 223.622 448.988 223.527 449.112C223.432 449.235 223.311 449.336 223.173 449.408C223.035 449.48 222.883 449.521 222.728 449.528L210.778 452.128ZM256.004 628.892C260.739 619.348 261.606 613.596 261.414 608.428C260.941 602.708 259.825 597.059 258.088 591.589C259.467 594.292 260.555 597.134 261.334 600.067C262.887 604.958 263.213 610.155 262.283 615.202C261.353 620.249 259.195 624.991 256 629.011L256.004 628.892Z" fill="#B0B0B0"/>
<path d="M432.256 69.9437C427.1 54.6516 413.465 39.3345 394.058 29.3594C362.811 13.2988 328.689 17.2652 317.892 38.271C307.095 59.2767 323.679 89.3053 354.978 105.392C374.282 115.315 394.699 117.565 409.992 112.881C410.944 113.37 411.716 113.767 412.254 114.239C412.676 114.518 413.185 114.631 413.685 114.558C414.185 114.484 414.641 114.229 414.965 113.841C417.689 111.135 425.292 105.333 439.557 106.638C454.381 107.74 573.324 181.909 603.074 200.882C607.9 203.845 613.43 205.465 619.093 205.575C624.756 205.685 630.348 204.281 635.291 201.508C634.669 195.874 632.556 190.51 629.17 185.97C625.784 181.429 621.248 177.875 616.03 175.675C583.416 162.464 453.705 109.055 444.22 97.5652C434.843 86.7505 435.175 77.1787 435.75 73.4013C435.877 72.9117 435.82 72.3927 435.588 71.9433C435.357 71.4939 434.969 71.1456 434.497 70.9651C433.931 70.674 433.183 70.3552 432.256 69.9437ZM413.409 111.803C413.109 112.172 412.683 112.417 412.212 112.489C411.742 112.56 411.263 112.454 410.867 112.191L408.784 110.925C394.465 115.425 375.483 113.358 357.517 104.124C379.328 113.347 392.524 111.983 406.958 107.705C407.833 108.155 408.579 108.538 409.04 108.971C409.432 109.242 409.912 109.357 410.385 109.292C410.857 109.228 411.289 108.989 411.595 108.622C422.676 103.207 429.582 102.749 436.355 104.764C423.123 103.73 415.964 109.238 413.409 111.803ZM619.94 182.377C615.215 179.117 610.14 176.399 604.809 174.274C607.765 174.917 610.644 175.873 613.398 177.124C618.139 179.032 622.34 182.073 625.635 185.982C628.929 189.89 631.217 194.547 632.298 199.546C627.944 189.847 624.033 185.555 619.926 182.402L619.94 182.377ZM433.822 74.4304C433.095 79.8099 434.015 85.2819 436.461 90.1235C433.073 84.6398 431.651 78.1637 432.429 71.7595C432.429 71.7595 432.429 71.7595 432.583 71.8389C433.086 72.0301 433.497 72.4061 433.732 72.89C433.966 73.374 434.008 73.9296 433.848 74.4436L433.822 74.4304ZM319.725 43.1881C320.127 42.0661 320.603 40.9717 321.148 39.9121C331.177 20.4013 362.823 16.6937 391.857 31.6166C403.161 37.2617 412.943 45.5412 420.381 55.7595C412.346 47.1977 402.866 40.1194 392.376 34.8483C362.095 19.1219 330.629 21.8466 319.673 43.1617L319.725 43.1881Z" fill="#B0B0B0"/>
<path d="M139.533 384.556C135.995 372.754 111.076 292.646 111.076 292.646L110.681 292.739L110.315 292.826L124.303 369.157C124.371 369.475 124.311 369.807 124.137 370.082C123.962 370.356 123.687 370.552 123.371 370.627C123.057 370.701 122.726 370.648 122.451 370.479C122.177 370.31 121.981 370.038 121.906 369.725L99.7745 295.351L99.3397 295.275L98.9849 295.537L112.685 371.907C112.685 371.907 112.972 373.118 111.872 373.379C110.772 373.639 110.457 372.435 110.457 372.435L88.5228 298.014L88.128 298.107L87.7332 298.201L101.299 374.632C101.365 374.946 101.309 375.272 101.14 375.545C100.972 375.817 100.705 376.015 100.394 376.096C100.078 376.163 99.7481 376.108 99.471 375.942C99.1939 375.776 98.9904 375.51 98.9019 375.2L77.1798 300.669L76.8132 300.756L76.4466 300.843C76.4466 300.843 90.0637 383.656 92.157 395.77C92.2191 396.272 92.4639 396.732 92.8447 397.065C93.2254 397.397 93.7155 397.577 94.2213 397.572C98.0478 397.885 107.511 400.374 115.788 412.065C124.581 424.05 150.572 584.172 155.458 619.03C156.341 624.624 158.703 629.88 162.298 634.256C165.894 638.633 170.594 641.971 175.914 643.928V643.928C179.792 639.794 182.497 634.703 183.749 629.179C185.001 623.655 184.755 617.898 183.037 612.502C171.863 579.132 123.128 424.454 125.714 409.715C127.85 395.589 135.243 389.08 138.495 387.091C138.95 386.87 139.307 386.489 139.498 386.021C139.69 385.553 139.702 385.032 139.533 384.556V384.556ZM157.815 617.164C157.257 614.181 157.018 611.147 157.102 608.113C157.89 613.798 159.31 619.377 161.338 624.746C163.441 629.482 166.584 634.33 175.018 640.898C170.429 638.645 166.462 635.304 163.464 631.167C160.465 627.03 158.526 622.222 157.815 617.164V617.164ZM136.78 386.516C133.501 388.512 126.044 394.5 123.886 408.661C124.417 401.346 127.183 394.369 131.812 388.673C132.89 387.318 135.628 384.291 135.305 381.542C134.982 378.793 133.709 373.414 130.486 361.181C133.931 371.964 136.646 380.54 137.67 383.986C137.85 384.444 137.859 384.951 137.696 385.415C137.532 385.88 137.207 386.27 136.78 386.516V386.516Z" fill="#B0B0B0"/>
<path d="M59.6849 85.4353C51.0224 80.881 40.948 79.7891 31.5048 82.381C14.1055 86.4996 2.23876 99.2714 4.99857 110.93C7.75837 122.589 24.1048 128.742 41.5041 124.623C51.064 122.71 59.5493 117.26 65.2599 109.365L66.5571 109.057C66.8117 109.025 67.0457 108.901 67.2142 108.707C67.3826 108.514 67.4738 108.265 67.4702 108.009C67.7808 105.781 68.5856 103.65 69.8257 101.772C71.0659 99.8933 72.7101 98.3151 74.6384 97.152C80.7397 92.7338 151.304 81.9785 169.04 79.5347C171.875 79.0769 174.538 77.8731 176.754 76.047C178.97 74.221 180.66 71.8386 181.649 69.1448C179.561 67.1718 176.983 65.7919 174.181 65.148C171.38 64.504 168.456 64.6194 165.713 65.4821C148.744 71.1644 80.9146 93.3467 73.4318 92.0548C71.187 91.8745 69.0114 91.1949 67.0643 90.0658C65.1171 88.9366 63.4479 87.3865 62.1788 85.529C62.0581 85.3114 61.8633 85.1442 61.6298 85.0577C61.3963 84.9711 61.1394 84.9709 60.9057 85.0571L59.6849 85.4353ZM66.2023 107.684C66.2156 107.926 66.1368 108.163 65.9818 108.349C65.8268 108.534 65.6071 108.655 65.367 108.685L64.1544 108.972C58.8965 116.385 50.9999 121.51 42.0834 123.297C53.5515 119.66 58.2321 114.775 62.3768 108.382L63.5894 108.095C63.8293 108.066 64.0505 107.951 64.2109 107.77C64.3714 107.59 64.4598 107.357 64.4595 107.115C66.9722 101.376 69.485 98.9072 72.8003 97.4385C71.0135 98.5656 69.5008 100.077 68.3726 101.862C67.2444 103.646 66.529 105.66 66.2786 107.755L66.2023 107.684ZM169.443 66.7702C166.551 67.0725 163.703 67.697 160.95 68.632C162.304 67.8987 163.732 67.3114 165.21 66.8799C167.681 66.0574 170.315 65.8517 172.882 66.2808C175.45 66.71 177.872 67.7608 179.939 69.3415C176.719 67.6022 173.094 66.7464 169.435 66.8614L169.443 66.7702ZM61.7851 86.6333C63.2787 88.9515 65.4414 90.7624 67.9877 91.8268C64.8841 90.8367 62.2059 88.8303 60.3858 86.1318C60.6388 86.0185 60.9259 86.0074 61.1868 86.1009C61.4477 86.1944 61.6621 86.3852 61.7851 86.6333ZM7.27307 112.236C7.09721 111.663 6.95915 111.08 6.85976 110.49C4.29995 99.6757 15.2781 87.6793 31.4366 83.8544C37.653 82.3528 44.1378 82.3575 50.3502 83.868C44.4155 83.2351 38.4151 83.6488 32.6226 85.0904C15.7873 89.0755 4.47327 100.408 7.27307 112.236Z" fill="#B0B0B0"/>
</svg>
