<svg width="491" height="1001" viewBox="0 0 491 1001" fill="none" xmlns="http://www.w3.org/2000/svg">
<g filter="url(#filter0_d)">
<ellipse rx="20.8353" ry="21.3251" transform="matrix(0.452781 -0.891622 0.904748 0.425947 419.499 737.073)" fill="url(#paint0_linear)"/>
</g>
<g filter="url(#filter1_d)">
<ellipse rx="16.9117" ry="17.3866" transform="matrix(-0.378323 -0.925674 0.935125 -0.354319 77.8397 238.657)" fill="url(#paint1_linear)"/>
</g>
<g filter="url(#filter2_d)">
<path d="M45.9054 70.0482L16.1802 59.7921L14.3008 29.3949L41.1585 8.47496L69.9213 21.2841L72.9235 50.3744L45.9054 70.0482Z" fill="url(#paint2_linear)"/>
<path d="M16.1802 59.7921L45.9054 70.0482L72.9235 50.3744M16.1802 59.7921L43.0379 38.8722M16.1802 59.7921L14.3008 29.3949L41.1585 8.47496M43.0379 38.8722L72.9235 50.3744M43.0379 38.8722L41.1585 8.47496M72.9235 50.3744L69.9213 21.2841L41.1585 8.47496" stroke="white" stroke-width="0.5"/>
</g>
<g filter="url(#filter3_d)">
<path d="M302.85 456.492L304.002 447.02L313.517 444.317L322.057 450.739L320.026 460.109L311.005 463.051L302.85 456.492Z" fill="url(#paint3_linear)"/>
<path d="M304.002 447.02L302.85 456.492L311.005 463.051M304.002 447.02L312.542 453.443M304.002 447.02L313.517 444.317L322.057 450.739M312.542 453.443L311.005 463.051M312.542 453.443L322.057 450.739M311.005 463.051L320.026 460.109L322.057 450.739" stroke="white" stroke-width="0.5"/>
</g>
<g filter="url(#filter4_d)">
<path d="M157.391 937.313L149.81 896.09L186.265 873.154L230.592 889.771L234.345 931.631L200.28 954.967L157.391 937.313Z" fill="url(#paint4_linear)"/>
<path d="M149.81 896.09L157.391 937.313L200.28 954.967M149.81 896.09L194.137 912.707M149.81 896.09L186.265 873.154L230.592 889.771M194.137 912.707L200.28 954.967M194.137 912.707L230.592 889.771M200.28 954.967L234.345 931.631L230.592 889.771" stroke="white" stroke-width="0.5"/>
</g>
<defs>
<filter id="filter0_d" x="398.018" y="716.389" width="92.9632" height="86.3672" filterUnits="userSpaceOnUse" color-interpolation-filters="sRGB">
<feFlood flood-opacity="0" result="BackgroundImageFix"/>
<feColorMatrix in="SourceAlpha" type="matrix" values="0 0 0 0 0 0 0 0 0 0 0 0 0 0 0 0 0 0 127 0"/>
<feOffset dx="35" dy="30"/>
<feGaussianBlur stdDeviation="7.5"/>
<feColorMatrix type="matrix" values="0 0 0 0 0 0 0 0 0 0 0 0 0 0 0 0 0 0 0.2 0"/>
<feBlend mode="normal" in2="BackgroundImageFix" result="effect1_dropShadow"/>
<feBlend mode="normal" in="SourceGraphic" in2="effect1_dropShadow" result="shape"/>
</filter>
<filter id="filter1_d" x="60.3627" y="221.829" width="84.9539" height="78.6554" filterUnits="userSpaceOnUse" color-interpolation-filters="sRGB">
<feFlood flood-opacity="0" result="BackgroundImageFix"/>
<feColorMatrix in="SourceAlpha" type="matrix" values="0 0 0 0 0 0 0 0 0 0 0 0 0 0 0 0 0 0 127 0"/>
<feOffset dx="35" dy="30"/>
<feGaussianBlur stdDeviation="7.5"/>
<feColorMatrix type="matrix" values="0 0 0 0 0 0 0 0 0 0 0 0 0 0 0 0 0 0 0.15 0"/>
<feBlend mode="normal" in2="BackgroundImageFix" result="effect1_dropShadow"/>
<feBlend mode="normal" in="SourceGraphic" in2="effect1_dropShadow" result="shape"/>
</filter>
<filter id="filter2_d" x="14.039" y="8.18828" width="109.152" height="107.136" filterUnits="userSpaceOnUse" color-interpolation-filters="sRGB">
<feFlood flood-opacity="0" result="BackgroundImageFix"/>
<feColorMatrix in="SourceAlpha" type="matrix" values="0 0 0 0 0 0 0 0 0 0 0 0 0 0 0 0 0 0 127 0"/>
<feOffset dx="35" dy="30"/>
<feGaussianBlur stdDeviation="7.5"/>
<feColorMatrix type="matrix" values="0 0 0 0 0 0 0 0 0 0 0 0 0 0 0 0 0 0 0.15 0"/>
<feBlend mode="normal" in2="BackgroundImageFix" result="effect1_dropShadow"/>
<feBlend mode="normal" in="SourceGraphic" in2="effect1_dropShadow" result="shape"/>
</filter>
<filter id="filter3_d" x="302.581" y="444.046" width="69.7571" height="64.2816" filterUnits="userSpaceOnUse" color-interpolation-filters="sRGB">
<feFlood flood-opacity="0" result="BackgroundImageFix"/>
<feColorMatrix in="SourceAlpha" type="matrix" values="0 0 0 0 0 0 0 0 0 0 0 0 0 0 0 0 0 0 127 0"/>
<feOffset dx="35" dy="30"/>
<feGaussianBlur stdDeviation="7.5"/>
<feColorMatrix type="matrix" values="0 0 0 0 0 0 0 0 0 0 0 0 0 0 0 0 0 0 0.15 0"/>
<feBlend mode="normal" in2="BackgroundImageFix" result="effect1_dropShadow"/>
<feBlend mode="normal" in="SourceGraphic" in2="effect1_dropShadow" result="shape"/>
</filter>
<filter id="filter4_d" x="149.532" y="872.878" width="135.078" height="127.37" filterUnits="userSpaceOnUse" color-interpolation-filters="sRGB">
<feFlood flood-opacity="0" result="BackgroundImageFix"/>
<feColorMatrix in="SourceAlpha" type="matrix" values="0 0 0 0 0 0 0 0 0 0 0 0 0 0 0 0 0 0 127 0"/>
<feOffset dx="35" dy="30"/>
<feGaussianBlur stdDeviation="7.5"/>
<feColorMatrix type="matrix" values="0 0 0 0 0 0 0 0 0 0 0 0 0 0 0 0 0 0 0.15 0"/>
<feBlend mode="normal" in2="BackgroundImageFix" result="effect1_dropShadow"/>
<feBlend mode="normal" in="SourceGraphic" in2="effect1_dropShadow" result="shape"/>
</filter>
<linearGradient id="paint0_linear" x1="20.8353" y1="0" x2="20.8353" y2="42.6503" gradientUnits="userSpaceOnUse">
<stop stop-color="#FC0370"/>
<stop offset="0.519337" stop-color="#7A66BA"/>
<stop offset="1" stop-color="#02C2FE"/>
</linearGradient>
<linearGradient id="paint1_linear" x1="16.9117" y1="0" x2="16.9117" y2="34.7733" gradientUnits="userSpaceOnUse">
<stop stop-color="#FC0370"/>
<stop offset="0.519337" stop-color="#7A66BA"/>
<stop offset="1" stop-color="#02C2FE"/>
</linearGradient>
<linearGradient id="paint2_linear" x1="16.9215" y1="60.6745" x2="67.3904" y2="18.2716" gradientUnits="userSpaceOnUse">
<stop stop-color="#4566A7"/>
<stop offset="1" stop-color="#FE026F"/>
</linearGradient>
<linearGradient id="paint3_linear" x1="303.774" y1="447.301" x2="319.842" y2="460.336" gradientUnits="userSpaceOnUse">
<stop stop-color="#4566A7"/>
<stop offset="1" stop-color="#FE026F"/>
</linearGradient>
<linearGradient id="paint4_linear" x1="149.221" y1="897.546" x2="234.228" y2="931.92" gradientUnits="userSpaceOnUse">
<stop stop-color="#4566A7"/>
<stop offset="1" stop-color="#FE026F"/>
</linearGradient>
</defs>
</svg>
