            <svg width="100%" height="100%" viewBox="0 0 1024 424" fill="none" xmlns="http://www.w3.org/2000/svg">
                <rect x="0.838013" y="75.528" width="32.2793" height="33.5247" fill="#F4F4F4" />
                <rect x="193.505" y="0.0975037" width="17.1484" height="17.81" fill="#F4F4F4" />
                <line y1="-0.5" x2="135.951" y2="-0.5" transform="matrix(0.693601 -0.72036 0.693601 0.72036 908.694 287.655)"
                    stroke="#CACACA" />
                <line y1="-0.5" x2="135.951" y2="-0.5" transform="matrix(0.693601 -0.72036 0.693601 0.72036 915.594 294.821)"
                    stroke="#CACACA" />
                <line y1="-0.5" x2="135.951" y2="-0.5" transform="matrix(0.693601 -0.72036 0.693601 0.72036 922.494 301.987)"
                    stroke="#CACACA" />
                <line y1="-0.5" x2="135.951" y2="-0.5" transform="matrix(0.693601 -0.72036 0.693601 0.72036 929.393 309.153)"
                    stroke="#CACACA" />
                <rect x="669.625" y="307.058" width="32.2793" height="33.5247" fill="#F4F4F4" />
                <rect x="980.314" y="22.0981" width="32.2793" height="33.5247" fill="#F4F4F4" />
                <rect x="291.352" y="389.822" width="32.2793" height="33.5247" fill="#F4F4F4" />
                <line y1="-0.5" x2="59.6278" y2="-0.5" transform="matrix(0.693601 -0.72036 0.693601 0.72036 639.364 256.771)"
                    stroke="#E5E5E5" />
                <line y1="-0.5" x2="59.6278" y2="-0.5" transform="matrix(0.693601 -0.72036 0.693601 0.72036 642.39 259.914)"
                    stroke="#E5E5E5" />
                <line y1="-0.5" x2="59.6278" y2="-0.5" transform="matrix(0.693601 -0.72036 0.693601 0.72036 645.416 263.057)"
                    stroke="#E5E5E5" />
                <line y1="-0.5" x2="59.6278" y2="-0.5" transform="matrix(0.693601 -0.72036 0.693601 0.72036 648.442 266.199)"
                    stroke="#E5E5E5" />
                <line y1="-0.5" x2="113.293" y2="-0.5" transform="matrix(0.693601 -0.72036 0.693601 0.72036 75.4839 173.902)"
                    stroke="#CACACA" />
                <line y1="-0.5" x2="113.293" y2="-0.5" transform="matrix(0.693601 -0.72036 0.693601 0.72036 81.2337 179.873)"
                    stroke="#CACACA" />
                <line y1="-0.5" x2="113.293" y2="-0.5" transform="matrix(0.693601 -0.72036 0.693601 0.72036 86.9835 185.845)"
                    stroke="#CACACA" />
                <line y1="-0.5" x2="113.293" y2="-0.5" transform="matrix(0.693601 -0.72036 0.693601 0.72036 92.7332 191.817)"
                    stroke="#CACACA" />
            </svg>